<svg width="350" height="349" viewBox="0 0 350 349" fill="none" xmlns="http://www.w3.org/2000/svg">
<g filter="url(#filter0_dddd_464_10011)">
<path d="M164.241 36.4129C159.061 34.6404 154.208 31.739 149.287 29.2358C122.149 15.427 90.2574 17.5604 66.6404 37.6123C24.9749 72.987 29.0861 141.891 67.3988 177.576C114.296 221.256 190.9 232.189 250.223 210.168C280.876 198.79 307.865 176.153 321.374 146.377C333.681 119.25 333.968 87.0329 322.591 59.5494C312 33.9678 286.858 20.3546 259.946 17.924C247.451 16.7951 235.158 18.1127 222.934 20.7044C205.294 24.4444 188.566 40.4142 169.974 37.8162C168.008 37.5418 166.104 37.0503 164.241 36.4129Z" fill="#FFE3D6"/>
<path d="M72.6493 209.56C75.1394 195.837 73.8252 181.444 68.8921 168.399C66.0661 160.924 61.8056 153.607 55.037 149.359C50.9127 152.937 48.4724 157.997 47.1271 163.288C45.4535 169.87 44.7117 176.756 45.6609 183.481C46.61 190.206 49.3248 196.772 53.9365 201.758C58.5488 206.743 65.858 209.554 72.6493 209.56Z" fill="#01BCA7"/>
<path d="M73.0566 208.763C70.8113 197.006 67.7882 185.396 64.0192 174.035C61.9024 167.654 59.5451 161.355 56.9603 155.149C56.6983 154.52 55.7298 154.946 55.9918 155.576C60.5903 166.616 64.4623 177.956 67.5601 189.508C70.6481 201.026 72.9785 212.747 74.5277 224.57C75.4015 231.236 76.0237 237.934 76.3997 244.645C76.4378 245.324 77.483 245.158 77.4457 244.482C76.7737 232.495 75.3089 220.556 73.0566 208.763Z" fill="#154340"/>
<path d="M82.0965 210.8C79.3686 198.483 80.8363 185.276 86.2015 173.859C91.5667 162.441 100.797 152.882 112.02 147.121C116.478 155.48 119.556 165.217 118.972 174.672C118.387 184.127 114.704 193.466 108.205 200.358C101.706 207.25 91.5674 211.009 82.0965 210.8Z" fill="#26645F"/>
<path d="M109.039 151.433C101.136 161.796 94.6222 173.209 89.669 185.261C84.7441 197.244 81.3471 209.863 79.6146 222.702C78.6337 229.971 78.1947 237.308 78.3033 244.641C78.3136 245.312 79.3644 245.441 79.3547 244.76C79.1632 231.849 80.6855 218.928 83.8205 206.403C86.9618 193.854 91.7332 181.703 97.9646 170.367C101.475 163.98 105.467 157.861 109.886 152.067C110.3 151.524 109.452 150.892 109.039 151.433Z" fill="#154340"/>
<path d="M76.4847 207.672C76.4847 207.672 64.6081 196.766 64.1636 175.087C63.979 166.106 65.457 156.594 69.9297 148.675C70.5699 147.541 71.2736 146.442 72.0403 145.389C72.5104 144.744 77.9613 138.337 78.4279 138.801C87.4847 147.803 92.2353 160.733 92.0687 173.501C91.9028 186.268 85.7737 198.909 76.4847 207.672Z" fill="#C08B89"/>
<path d="M76.8137 205.389C76.8275 192.239 77.0155 179.088 77.3771 165.943C77.5803 158.562 77.8389 151.183 78.1506 143.806C78.179 143.129 77.1282 143.004 77.0992 143.686C76.542 156.869 76.1569 170.058 75.9481 183.251C75.7394 196.444 75.7055 209.639 75.8465 222.832C75.9253 230.219 76.0601 237.605 76.2475 244.99C76.2648 245.668 77.31 245.499 77.2934 244.826C76.9595 231.684 76.7998 218.537 76.8137 205.389Z" fill="#154340"/>
<path d="M295.216 224.413C294.344 221.885 291.999 220.143 289.56 219.047C287.122 217.95 284.482 217.339 282.079 216.167C279.676 214.995 277.423 213.082 276.792 210.484C276.045 207.415 277.699 204.338 279.134 201.524C280.57 198.71 281.839 195.312 280.397 192.501C278.87 189.526 275.07 188.652 272.53 186.477C269.282 183.695 268.448 178.485 270.667 174.827C271.701 173.122 273.259 171.807 274.515 170.259C275.771 168.71 276.758 166.716 276.318 164.771C278.196 167.14 280.861 168.487 283.8 169.195C286.739 169.903 289.803 170.321 292.481 171.725C295.158 173.129 297.435 175.842 297.226 178.859C297.079 180.97 295.782 182.793 294.868 184.703C293.955 186.612 293.471 189.067 294.803 190.712C296.03 192.226 298.223 192.39 300.079 192.987C304.341 194.359 307.392 198.816 307.127 203.286C306.875 207.523 304.066 211.12 301.333 214.369C298.601 217.617 295.718 220.197 295.216 224.413Z" fill="#C08B89"/>
<path d="M293.253 210.815C291.731 201.477 289.561 192.226 286.25 183.351C284.423 178.453 282.239 173.69 279.648 169.148C279.311 168.559 278.368 169.04 278.707 169.634C283.306 177.696 286.586 186.432 288.945 195.393C291.43 204.831 292.905 214.499 294.001 224.187C294.638 229.822 295.148 235.47 295.659 241.118C295.719 241.793 296.753 241.562 296.692 240.891C295.786 230.841 294.877 220.779 293.253 210.815Z" fill="#154340"/>
<path d="M302.823 222.775C305.73 216.703 310.71 211.645 316.736 208.644C319.35 207.342 322.138 206.422 324.787 205.193C327.436 203.965 330.005 202.374 331.763 200.043C333.522 197.711 334.349 194.525 333.314 191.794C332.28 189.07 329.517 186.863 329.773 183.961C330.122 180.009 335.662 178.489 336.799 174.689C337.451 172.509 336.429 170.142 334.947 168.415C333.465 166.688 331.548 165.395 329.931 163.794C328.315 162.193 326.946 160.183 327.055 157.91C326.167 160.312 323.493 161.56 320.969 161.994C318.445 162.429 315.811 162.308 313.389 163.139C309.107 164.61 306.16 169.263 306.663 173.764C306.881 175.716 307.662 177.556 308.132 179.463C308.603 181.37 308.728 183.504 307.719 185.189C306.171 187.775 302.723 188.291 300.083 189.745C295.493 192.272 293.331 198.46 295.348 203.296C296.193 205.321 299.061 207.574 300.119 209.496C303.783 216.146 303.647 219.475 302.823 222.775Z" fill="#FFE3D6"/>
<path d="M321.557 171.14C316.906 179.625 312.877 188.448 309.524 197.524C306.159 206.633 303.47 215.991 301.488 225.497C300.373 230.851 299.48 236.251 298.812 241.679C298.729 242.355 299.786 242.409 299.869 241.735C301.044 232.183 302.925 222.724 305.496 213.449C308.058 204.209 311.298 195.157 315.182 186.39C317.393 181.4 319.817 176.508 322.441 171.722C322.767 171.127 321.884 170.542 321.557 171.14Z" fill="#154340"/>
<path d="M305.026 136.412C305.484 138.736 302.861 142.402 300.904 143.735C298.947 145.069 296.617 145.725 294.491 146.769C292.365 147.813 290.303 149.449 289.762 151.754C288.835 155.698 292.629 159.162 293.313 163.155C293.836 166.213 292.452 169.315 290.528 171.749C288.604 174.182 286.15 176.137 284.029 178.401C281.908 180.665 280.061 183.404 279.807 186.496C279.477 190.511 281.901 194.272 284.83 197.037C287.759 199.801 291.263 201.916 294.098 204.776C296.933 207.637 299.116 211.609 298.387 215.57C299.292 211.743 302.715 208.73 305.846 206.351C308.977 203.971 312.474 202.078 315.433 199.489C318.393 196.9 320.854 193.379 320.955 189.447C321.134 182.482 314.098 177.002 313.909 170.037C313.815 166.562 315.457 163.314 316.795 160.105C318.133 156.896 319.198 153.248 317.957 150C315.67 144.013 307.223 142.434 305.026 136.412Z" fill="#26645F"/>
<path d="M303.757 158.392C302.709 169.216 301.661 180.041 300.613 190.865C299.569 201.651 298.523 212.436 297.534 223.227C296.974 229.324 296.434 235.423 295.921 241.524C295.864 242.203 296.921 242.258 296.978 241.58C297.89 230.738 298.889 219.904 299.921 209.074C300.949 198.289 302.001 187.506 303.045 176.723C303.634 170.631 304.224 164.539 304.814 158.448C304.879 157.769 303.822 157.714 303.757 158.392Z" fill="#154340"/>
<path d="M121.222 263.529L121.257 263.763C121.293 264.111 121.335 264.445 121.399 264.808C121.47 265.106 121.527 265.432 121.591 265.766L157.435 265.758C157.435 265.758 157.491 265.389 157.491 264.806C157.477 264.508 157.456 264.16 157.392 263.755C157.377 263.683 157.371 263.598 157.342 263.52C156.951 261.502 155.48 258.718 150.584 257.824C150.35 257.767 150.101 257.739 149.831 257.704H149.81C149.426 257.647 149.042 257.611 148.63 257.576C148.496 257.569 148.361 257.554 148.225 257.547C138.421 256.782 134.078 253.494 134.078 253.494C134.078 253.494 128.395 254.632 123.066 253.496C123.066 253.496 122.441 254.534 121.887 256.338C121.802 256.644 121.71 256.971 121.625 257.319C121.603 257.383 121.589 257.453 121.568 257.532C121.533 257.667 121.504 257.823 121.475 257.98C121.468 258.022 121.454 258.08 121.454 258.123C121.454 258.158 121.432 258.172 121.432 258.201C121.291 258.94 121.184 259.75 121.141 260.623C121.101 261.532 121.108 262.505 121.222 263.529Z" fill="#C08B89"/>
<path d="M137.637 253.784C137.515 253.672 137.354 253.589 137.184 253.597C137.004 253.605 136.872 253.673 136.732 253.784C136.633 253.862 136.534 253.94 136.435 254.017C135.962 254.381 135.482 254.735 134.993 255.077C134.854 255.175 134.745 255.292 134.698 255.46C134.656 255.614 134.676 255.818 134.763 255.954C134.939 256.226 135.346 256.39 135.64 256.184C136.322 255.707 136.987 255.207 137.638 254.69C137.757 254.594 137.825 254.382 137.825 254.237C137.824 254.08 137.755 253.892 137.637 253.784Z" fill="white"/>
<path d="M140.174 254.924C139.934 254.704 139.501 254.653 139.268 254.924C138.799 255.469 138.276 255.966 137.709 256.408C137.618 256.476 137.527 256.545 137.434 256.611C137.295 256.709 137.186 256.824 137.139 256.994C137.097 257.147 137.116 257.351 137.204 257.487C137.378 257.758 137.788 257.924 138.08 257.717C138.85 257.172 139.558 256.546 140.173 255.829C140.285 255.699 140.361 255.554 140.361 255.377C140.362 255.22 140.292 255.032 140.174 254.924Z" fill="white"/>
<path d="M142.507 255.751C142.385 255.639 142.225 255.556 142.054 255.564C141.897 255.571 141.703 255.621 141.602 255.751L140.149 257.62C140.04 257.76 139.962 257.888 139.962 258.073C139.962 258.23 140.032 258.418 140.15 258.526C140.272 258.638 140.432 258.721 140.603 258.713C140.76 258.706 140.954 258.656 141.056 258.525L142.508 256.656C142.617 256.516 142.695 256.389 142.695 256.203C142.695 256.047 142.625 255.86 142.507 255.751Z" fill="white"/>
<path d="M145.094 256.355C144.786 256.192 144.395 256.276 144.216 256.589C143.899 257.132 143.585 257.671 143.268 258.214C143.072 258.503 143.16 258.955 143.477 259.123C143.786 259.287 144.177 259.202 144.357 258.889C144.673 258.346 144.988 257.807 145.305 257.264C145.5 256.974 145.412 256.522 145.094 256.355Z" fill="white"/>
<path d="M121.252 263.768C121.294 264.106 121.335 264.451 121.405 264.803C121.467 265.113 121.522 265.438 121.598 265.769L157.433 265.76C157.433 265.76 157.495 265.395 157.495 264.808C157.482 264.505 157.461 264.153 157.392 263.76L121.252 263.768Z" fill="#FFE3D6"/>
<path d="M104.084 263.529L104.049 263.763C104.013 264.111 103.971 264.445 103.906 264.808C103.835 265.106 103.779 265.432 103.714 265.766L67.8709 265.758C67.8709 265.758 67.8142 265.389 67.8142 264.806C67.8287 264.508 67.8502 264.16 67.9138 263.755C67.9283 263.683 67.9352 263.598 67.9635 263.52C68.3548 261.502 69.8259 258.718 74.7217 257.824C74.9561 257.767 75.2049 257.739 75.4745 257.704H75.496C75.8796 257.647 76.2633 257.611 76.6753 257.576C76.8101 257.569 76.9449 257.554 77.0804 257.547C86.8852 256.782 91.2273 253.494 91.2273 253.494C91.2273 253.494 96.9105 254.632 102.24 253.496C102.24 253.496 102.865 254.534 103.418 256.338C103.503 256.644 103.596 256.971 103.681 257.319C103.703 257.383 103.716 257.453 103.738 257.532C103.773 257.667 103.801 257.823 103.83 257.98C103.837 258.022 103.852 258.08 103.852 258.123C103.852 258.158 103.873 258.172 103.873 258.201C104.015 258.94 104.121 259.75 104.164 260.623C104.206 261.532 104.198 262.505 104.084 263.529Z" fill="#C08B89"/>
<path d="M87.6693 253.784C87.7916 253.672 87.952 253.589 88.1221 253.597C88.3025 253.605 88.4346 253.673 88.5749 253.784C88.6737 253.862 88.7726 253.94 88.8714 254.017C89.3443 254.381 89.8248 254.735 90.3135 255.077C90.4525 255.175 90.5617 255.292 90.608 255.46C90.6502 255.614 90.6315 255.818 90.5437 255.954C90.3681 256.226 89.9609 256.39 89.6671 256.184C88.9855 255.707 88.3205 255.207 87.6693 254.69C87.5497 254.594 87.4819 254.382 87.4819 254.237C87.4819 254.08 87.5511 253.892 87.6693 253.784Z" fill="white"/>
<path d="M85.1312 254.924C85.3711 254.704 85.8039 254.653 86.0375 254.924C86.5062 255.469 87.0296 255.966 87.5964 256.408C87.6877 256.476 87.7782 256.545 87.8716 256.611C88.0105 256.709 88.1191 256.824 88.1661 256.994C88.2082 257.147 88.1896 257.351 88.1018 257.487C87.9269 257.758 87.5176 257.924 87.2252 257.717C86.4551 257.172 85.7472 256.546 85.1319 255.829C85.0199 255.699 84.9439 255.554 84.9446 255.377C84.9439 255.22 85.0137 255.032 85.1312 254.924Z" fill="white"/>
<path d="M82.7989 255.751C82.9212 255.639 83.0816 255.556 83.2517 255.564C83.4093 255.571 83.6036 255.621 83.7045 255.751L85.1569 257.62C85.2661 257.76 85.3443 257.888 85.3443 258.073C85.3443 258.23 85.2744 258.418 85.1562 258.526C85.0345 258.638 84.8742 258.721 84.7034 258.713C84.5458 258.706 84.3522 258.656 84.2506 258.525L82.7982 256.656C82.689 256.516 82.6108 256.389 82.6108 256.203C82.6115 256.047 82.6814 255.86 82.7989 255.751Z" fill="white"/>
<path d="M80.212 256.355C80.5203 256.192 80.9116 256.276 81.0906 256.589C81.4073 257.132 81.7218 257.671 82.0384 258.214C82.2348 258.503 82.1463 258.955 81.829 259.123C81.5206 259.287 81.1294 259.202 80.9496 258.889C80.6323 258.346 80.3185 257.807 80.0018 257.264C79.8062 256.974 79.8947 256.522 80.212 256.355Z" fill="white"/>
<path d="M104.054 263.768C104.012 264.106 103.971 264.451 103.902 264.803C103.839 265.113 103.784 265.438 103.708 265.769L67.873 265.76C67.873 265.76 67.8108 265.395 67.8108 264.808C67.8246 264.505 67.8454 264.153 67.9145 263.76L104.054 263.768Z" fill="#FFE3D6"/>
<path d="M110.199 120.914L123.07 253.495C128.38 255.443 134.078 253.495 134.078 253.495C134.078 253.495 141.474 147.065 134.524 120.65L110.199 120.914Z" fill="#FFC6C6"/>
<path d="M91.2239 253.494C91.2239 253.494 97.1373 254.907 102.241 253.494C102.496 251.711 115.79 120.84 115.79 120.84L92.6895 120.658C86.9828 155.946 91.2239 253.494 91.2239 253.494Z" fill="#FFC6C6"/>
<path d="M134.524 120.649L92.6894 120.658C85.9555 149.69 88.6674 246.939 88.6674 246.939C88.6674 246.939 95.7595 248.824 104.917 246.939L113.129 152.72L121.119 247.298C121.119 247.298 127.595 248.599 135.765 247.298C135.765 247.298 141.839 144.912 134.524 120.649Z" fill="#538E80"/>
<path d="M113.029 148.193C112.794 145.275 112.561 142.356 112.326 139.438L111.932 134.519C111.93 134.492 111.919 134.469 111.905 134.451C111.899 134.441 111.892 134.433 111.884 134.426C111.883 134.425 111.881 134.424 111.88 134.423C111.87 134.416 111.86 134.409 111.847 134.405C111.813 134.392 111.775 134.39 111.743 134.401C109.737 134.523 107.845 133.294 107.185 131.387C107.003 130.866 106.919 130.32 106.933 129.768C106.937 129.598 106.674 129.599 106.669 129.768C106.643 130.801 106.957 131.836 107.555 132.678C108.159 133.528 109.033 134.151 110.027 134.46C110.561 134.626 111.123 134.693 111.681 134.666C111.911 137.536 112.141 140.406 112.371 143.275C112.606 146.193 112.839 149.112 113.074 152.03C113.205 153.67 113.337 155.309 113.468 156.949C113.482 157.117 113.746 157.118 113.733 156.949C113.497 154.029 113.262 151.111 113.029 148.193Z" fill="#FFE3D6"/>
<path d="M96.1711 25.401C95.9084 26.0259 95.6927 26.6764 95.5268 27.3477C93.4508 35.7768 99.3877 44.7665 95.2309 52.8623C93.7743 55.6994 91.2379 58.1508 91.5372 61.5499C91.811 64.6594 93.6761 67.5449 96.1441 69.39C99.378 71.8082 103.504 72.7117 107.532 73.011C113.241 73.4355 119.216 72.6993 124.109 69.7253C129.001 66.7506 132.582 61.2292 132.142 55.5211C131.826 51.4299 129.617 47.8849 128.328 44.0745C126.895 39.8354 127.768 35.3585 127.074 31.0137C126.227 25.71 122.718 20.7582 117.798 18.5025C114.089 16.8019 109.364 16.5309 105.43 17.5208C101.258 18.5716 97.8108 21.4944 96.1711 25.401Z" fill="#421F09"/>
<path d="M100.841 58.5337C94.6742 60.9263 89.804 86.4672 89.804 86.4672L68.3052 66.9413L62.2881 71.7217C62.2881 71.7217 77.55 90.3053 82.5993 96.0279C87.6492 101.751 97.6144 102.626 101.183 93.4694C104.751 84.3124 100.841 58.5337 100.841 58.5337Z" fill="#FFC6C6"/>
<path d="M68.7442 69.0146C68.2472 67.742 72.1454 61.0031 70.7905 60.0498C69.5509 59.1781 67.2399 61.5935 67.1024 63.3093C66.1767 61.3509 64.8625 52.6971 63.1122 53.2115C61.8167 53.5917 63.5373 59.9842 63.5373 59.9842C63.5373 59.9842 60.7341 52.7891 59.151 53.5751C57.5679 54.3611 61.3058 61.3239 61.3058 61.3239C61.3058 61.3239 57.7864 55.6061 56.6319 56.4447C55.4961 57.2687 59.6308 62.898 59.6308 62.898C59.6308 62.898 55.7159 58.9548 55.1048 59.4684C54.493 59.9821 56.3201 62.9402 58.3581 64.7666C59.0584 69.4529 62.5052 71.9105 62.5052 71.9105L68.7442 69.0146Z" fill="#FFC6C6"/>
<path d="M100.841 58.5337C94.1151 61.6446 90.4346 77.7139 90.4346 77.7139C90.4346 77.7139 96.8906 81.3052 102.685 81.4843L100.841 58.5337Z" fill="#538E80"/>
<path d="M135.286 121.175C108.05 127.265 91.8828 120.655 91.8828 120.655C92.9163 117.477 98.9887 88.3172 98.9887 88.3172C92.8852 86.2399 92.2001 75.6097 98.968 69.1965L100.841 58.5338L107.82 56.0375L116.964 55.9746L126.212 58.9562L127.157 103.94L135.286 121.175Z" fill="#538E80"/>
<path d="M118.513 124.828C115.265 124.925 112.011 124.806 108.778 124.473C105.547 124.14 102.339 123.592 99.1801 122.834C97.4021 122.408 95.6407 121.914 93.8993 121.356C93.7375 121.304 93.6677 121.559 93.8294 121.61C96.9341 122.605 100.104 123.393 103.313 123.968C106.513 124.54 109.751 124.903 112.999 125.05C114.836 125.133 116.676 125.146 118.514 125.091C118.682 125.086 118.683 124.823 118.513 124.828Z" fill="#FFE3D6"/>
<path d="M101.907 88.5136C98.8095 88.5357 96.0443 86.3367 94.9002 83.5376C93.5867 80.3244 94.1792 76.6681 95.7554 73.6651C96.6209 72.0157 97.7622 70.528 99.0356 69.1737C99.0591 69.164 99.0771 69.144 99.0895 69.1157C99.0999 69.1046 99.1103 69.0928 99.1213 69.0818C99.1718 69.0285 99.1642 68.965 99.1317 68.9186C99.5485 66.6415 99.9654 64.3643 100.382 62.0872C100.413 61.9213 100.158 61.8501 100.128 62.0174C99.7027 64.3394 99.2775 66.6622 98.8524 68.9843C96.4992 71.4861 94.5352 74.532 94.0402 77.9878C93.7928 79.7161 93.8999 81.5107 94.4785 83.1657C95.0074 84.6783 95.9303 86.0298 97.1788 87.0391C98.5137 88.1189 100.178 88.7901 101.907 88.7777C102.076 88.7756 102.077 88.5122 101.907 88.5136Z" fill="#FFE3D6"/>
<path d="M121.713 84.9701C120.561 86.6493 118.65 87.7658 116.621 87.9441C116.453 87.9586 116.452 88.2227 116.621 88.2075C118.749 88.0202 120.731 86.8643 121.94 85.1029C122.037 84.9632 121.808 84.8312 121.713 84.9701Z" fill="#FFE3D6"/>
<path d="M106.319 56.5737L104.403 60.9822L112.606 67.4797L120.686 60.8812L118.824 56.5737H106.319Z" fill="#26645F"/>
<path d="M118.824 56.574L112.606 67.48L106.319 56.574L107.82 56.0375L116.964 55.9746L118.824 56.574Z" fill="#FFC6C6"/>
<path d="M126.211 58.9561C137.003 63.574 146.921 77.8563 149.886 82.2025C153.836 87.9929 153.432 93.1099 148.778 96.498C146.872 97.8847 123.043 112.69 123.043 112.69L118.823 105.387L141.043 88.801L126.532 74.2152L126.211 58.9561Z" fill="#FFC6C6"/>
<path d="M126.212 58.9561C136.175 62.4969 144.322 73.3372 144.322 73.3372C144.322 73.3372 139.339 79.8009 133.885 83.3024L125.401 74.6168L126.212 58.9561Z" fill="#538E80"/>
<path d="M127.458 76.3632C126.122 74.8859 124.787 73.4093 123.451 71.932C123.337 71.8061 123.158 71.9997 123.271 72.1248C123.586 72.4733 123.901 72.821 124.216 73.1694C123.895 73.0159 123.562 72.888 123.219 72.7906C123.056 72.7442 122.995 73.0007 123.159 73.047C123.643 73.1846 124.106 73.3837 124.542 73.6374C124.58 73.6595 124.617 73.6595 124.648 73.6471C125.525 74.617 126.401 75.5869 127.279 76.5568C127.392 76.6819 127.571 76.4883 127.458 76.3632Z" fill="#FFE3D6"/>
<path d="M120.949 104.739C120.091 104.564 119.449 105.493 118.024 105.33C116.598 105.167 114.595 103.708 113.487 103.88C112.379 104.052 104.783 107.26 105.621 108.892C106.119 109.864 110.229 107.887 110.334 107.946C110.439 108.005 105.568 111.033 106.399 112.294C107.23 113.556 112.358 109.355 112.481 109.461C112.603 109.568 108.88 113.153 109.913 114.131C110.947 115.11 114.205 111.268 114.349 111.318C114.494 111.367 112.66 115.174 113.51 115.707C114.36 116.24 116.804 111.683 117.021 111.756C117.237 111.829 118.859 113.382 120.601 113.548C122.343 113.715 125.264 111.307 125.154 109.951C125.045 108.596 122.065 104.967 120.949 104.739Z" fill="#FFC6C6"/>
<path d="M97.8768 39.3656C97.8802 39.4292 97.8892 39.4928 97.8934 39.5558C97.9024 39.6311 97.9058 39.694 97.9141 39.7694C98.2971 43.3351 99.5767 45.5936 101.361 47.279C102.316 48.1874 103.206 48.8572 103.989 49.4545C104.24 49.6474 104.475 49.8285 104.704 50.0089C104.883 50.1479 105.05 50.2917 105.223 50.4417C106.968 51.9245 107.949 53.5519 107.7 58.2092C109.07 62.2699 115.108 63.1492 117.307 58.729C117.546 53.0887 118.875 48.2807 119.987 45.1947C120.269 44.3887 120.54 43.7036 120.773 43.154C121.213 42.1011 121.521 41.526 121.521 41.526C121.521 41.526 121.924 29.1212 120.317 25.7359C116.4 17.5661 101.01 19.4575 99.4855 25.7179C98.022 31.6991 97.5878 36.0737 97.8768 39.3656Z" fill="#FFC6C6"/>
<path d="M97.6438 32.7552C99.2352 29.5821 101.626 26.8141 104.535 24.7789C107.169 28.2278 110.875 30.8023 115.078 31.8848C115.563 35.2736 117.851 38.4066 121.038 39.6572C122.137 39.5894 123.101 38.5981 123.507 37.5743C123.913 36.5504 123.918 35.4188 123.913 34.3175C123.907 32.4932 123.891 30.6474 123.438 28.8797C122.67 25.8746 120.636 23.256 118.03 21.572C115.425 19.8887 112.283 19.113 109.182 19.1586C107.001 19.1904 104.802 19.6253 102.867 20.6311C100.931 21.637 99.2719 23.238 98.3932 25.2345C97.3424 27.6209 97.5042 30.1524 97.6438 32.7552Z" fill="#421F09"/>
<path d="M124.843 41.989C123.452 43.4774 121.367 43.7892 120.185 42.6852C119.004 41.5812 119.174 39.4796 120.564 37.9905C121.955 36.5015 124.041 36.1897 125.222 37.2944C126.404 38.3984 126.234 40.5 124.843 41.989Z" fill="#FFC6C6"/>
<path d="M124.328 38.0114C123.788 37.6878 123.046 37.6616 122.344 37.9436C121.994 38.0833 121.737 38.263 121.555 38.4918C121.314 38.7953 121.231 39.188 121.338 39.5163C121.432 39.8108 121.653 40.0113 121.847 40.1876C121.988 40.3155 122.121 40.4358 122.193 40.5754C122.302 40.7897 122.256 41.0787 122.085 41.248C121.914 41.4167 121.625 41.4589 121.412 41.3462C121.286 41.2798 121.132 41.3282 121.065 41.4527C121 41.5771 121.047 41.7326 121.172 41.7983C121.309 41.8709 121.459 41.9096 121.611 41.9179C121.915 41.9338 122.225 41.8274 122.444 41.611C122.772 41.2861 122.857 40.7524 122.646 40.341C122.533 40.1191 122.35 39.9539 122.189 39.8081C122.028 39.6615 121.876 39.5232 121.823 39.358C121.769 39.1921 121.821 38.9771 121.954 38.8084C122.008 38.7407 122.08 38.6805 122.158 38.6232C122.412 38.6342 122.726 38.7296 122.876 38.9135C123.047 39.1216 123.116 39.4126 123.059 39.6739C123.029 39.8122 123.116 39.9484 123.254 39.9788C123.268 39.9823 123.282 39.9836 123.295 39.9843C123.418 39.9912 123.531 39.9076 123.558 39.7839C123.651 39.367 123.544 38.9204 123.272 38.5893C123.171 38.4662 123.041 38.3798 122.903 38.3079C123.332 38.2167 123.748 38.2616 124.062 38.4496C124.451 38.6819 124.723 39.2433 124.493 39.6767C124.428 39.8018 124.475 39.956 124.6 40.0224C124.725 40.088 124.879 40.0403 124.946 39.9159C125.282 39.2854 124.997 38.4137 124.328 38.0114Z" fill="#C16B5B"/>
<path d="M104.905 38.3895C104.686 38.2776 104.452 38.2105 104.206 38.1953C103.986 38.1822 103.743 38.2105 103.561 38.3432C103.365 38.4856 103.266 38.7062 103.247 38.9433C103.228 39.17 103.302 39.394 103.387 39.6014C103.432 39.7127 103.539 39.806 103.668 39.7659C103.775 39.7327 103.881 39.6042 103.833 39.4846C103.771 39.3332 103.703 39.1686 103.705 39.0027C103.706 38.9177 103.729 38.8306 103.779 38.7622C103.777 38.7663 103.774 38.7711 103.771 38.7753C103.818 38.702 103.908 38.6751 103.988 38.6612C103.994 38.6598 104.001 38.6592 104.01 38.6578C104.027 38.6571 104.044 38.655 104.061 38.6543C104.107 38.6522 104.153 38.6529 104.2 38.6557C104.223 38.6571 104.247 38.6592 104.27 38.6619C104.283 38.6633 104.284 38.6626 104.287 38.6633C104.292 38.664 104.292 38.6647 104.302 38.6661C104.446 38.6923 104.567 38.7504 104.703 38.7988C104.805 38.8354 104.93 38.805 104.984 38.7055C105.041 38.6025 105.02 38.4483 104.905 38.3895Z" fill="#C16B5B"/>
<path d="M99.8146 32.6011C101.024 31.9471 102.492 31.8849 103.726 32.5236C104.028 32.6799 104.195 33.0808 104.025 33.394C103.803 33.8012 103.405 33.8005 103.032 33.6318C102.699 33.4811 102.341 33.3885 101.976 33.3594C101.978 33.3394 102.009 33.374 101.989 33.3733C101.522 33.3477 101.061 33.4424 100.636 33.6332C100.611 33.6443 100.585 33.6567 100.545 33.6754C100.247 33.833 99.8464 33.8226 99.6473 33.506C99.4773 33.2343 99.4953 32.7739 99.8146 32.6011Z" fill="black"/>
<path d="M107.66 32.6566C108.942 32.1568 110.406 32.2771 111.552 33.0638C111.832 33.2567 111.948 33.6742 111.74 33.9645C111.539 34.2452 111.14 34.3593 110.84 34.1533C110.724 34.0738 110.605 34.0053 110.483 33.9369C110.47 33.9307 110.473 33.9321 110.466 33.9279C110.444 33.9182 110.421 33.9079 110.399 33.8982C110.352 33.8774 110.303 33.8581 110.254 33.8401C110.124 33.791 109.991 33.7502 109.856 33.7171C109.822 33.7088 109.605 33.6431 109.772 33.6963C109.717 33.679 109.649 33.6777 109.591 33.6707C109.462 33.6555 109.331 33.6479 109.201 33.6472C109.131 33.6465 109.062 33.6507 108.992 33.6521C108.984 33.6521 108.981 33.6521 108.977 33.6521C108.966 33.6535 108.952 33.6555 108.932 33.6576C108.803 33.6735 108.674 33.6963 108.548 33.7267C108.48 33.7433 108.413 33.7613 108.347 33.782C108.321 33.7903 108.294 33.7986 108.268 33.8076C108.263 33.8097 108.265 33.8083 108.26 33.8111C108.258 33.8118 108.256 33.8118 108.254 33.8125C108.252 33.8131 108.25 33.8138 108.248 33.8145C108.251 33.8138 108.249 33.8138 108.252 33.8132C107.937 33.9327 107.54 33.8726 107.382 33.5339C107.247 33.2421 107.322 32.7879 107.66 32.6566Z" fill="black"/>
<path d="M107.244 41.5436C106.416 42.1741 105.365 42.4645 104.331 42.3691C104.045 42.3428 104.021 42.788 104.306 42.8142C105.461 42.9207 106.621 42.5771 107.542 41.8761C107.77 41.7019 107.472 41.3708 107.244 41.5436Z" fill="#8E4136"/>
<path d="M110.198 37.0687C110.218 37.6494 109.763 38.1361 109.181 38.1555C108.6 38.1748 108.114 37.7192 108.095 37.1386C108.075 36.5579 108.53 36.0712 109.112 36.0518C109.692 36.0332 110.179 36.488 110.198 37.0687Z" fill="black"/>
<path d="M109.073 36.7704C109.079 36.9397 108.946 37.0815 108.777 37.087C108.607 37.0925 108.466 36.9598 108.46 36.7904C108.455 36.621 108.587 36.4793 108.757 36.4738C108.926 36.4683 109.068 36.601 109.073 36.7704Z" fill="white"/>
<path d="M102.521 36.8573C102.54 37.438 102.085 37.9247 101.504 37.9441C100.923 37.9634 100.436 37.5086 100.417 36.9272C100.398 36.3465 100.853 35.8598 101.434 35.8404C102.015 35.8211 102.501 36.2767 102.521 36.8573Z" fill="black"/>
<path d="M101.396 36.558C101.402 36.7273 101.269 36.869 101.099 36.8746C100.93 36.8801 100.788 36.7474 100.783 36.578C100.777 36.4086 100.91 36.2669 101.079 36.2614C101.248 36.2559 101.39 36.3886 101.396 36.558Z" fill="white"/>
<path d="M156.296 263.303L156.264 263.53C156.234 263.867 156.196 264.191 156.138 264.542C156.072 264.832 156.021 265.148 155.962 265.472L121.291 265.846C121.291 265.846 121.233 265.489 121.226 264.926C121.237 264.637 121.254 264.3 121.311 263.907C121.324 263.838 121.33 263.756 121.357 263.68C121.714 261.724 123.107 259.015 127.833 258.098C128.059 258.04 128.3 258.01 128.56 257.973H128.581C128.952 257.914 129.322 257.876 129.72 257.837C129.851 257.829 129.982 257.813 130.112 257.805C139.587 256.96 143.752 253.733 143.752 253.733C143.752 253.733 149.262 254.774 154.405 253.619C154.405 253.619 155.02 254.616 155.575 256.356C155.661 256.65 155.753 256.965 155.84 257.301C155.861 257.363 155.876 257.431 155.897 257.507C155.933 257.637 155.962 257.787 155.991 257.939C155.999 257.98 156.013 258.035 156.013 258.076C156.014 258.111 156.035 258.124 156.035 258.152C156.18 258.865 156.291 259.647 156.342 260.492C156.392 261.371 156.396 262.312 156.296 263.303Z" fill="#154340"/>
<path d="M140.314 254.052C140.431 253.942 140.585 253.86 140.75 253.865C140.925 253.872 141.054 253.936 141.191 254.042C141.287 254.117 141.384 254.19 141.48 254.264C141.941 254.612 142.41 254.949 142.886 255.275C143.022 255.368 143.128 255.48 143.175 255.642C143.218 255.79 143.202 255.988 143.118 256.121C142.951 256.385 142.559 256.548 142.273 256.352C141.608 255.898 140.96 255.422 140.324 254.929C140.208 254.838 140.14 254.634 140.139 254.492C140.136 254.34 140.201 254.158 140.314 254.052Z" fill="white"/>
<path d="M137.872 255.183C138.101 254.967 138.519 254.913 138.748 255.173C139.207 255.696 139.719 256.17 140.273 256.592C140.361 256.657 140.45 256.723 140.541 256.785C140.676 256.878 140.783 256.989 140.83 257.152C140.872 257.3 140.856 257.498 140.772 257.63C140.606 257.894 140.212 258.059 139.927 257.862C139.176 257.343 138.485 256.745 137.882 256.058C137.772 255.933 137.697 255.794 137.695 255.622C137.693 255.47 137.759 255.288 137.872 255.183Z" fill="white"/>
<path d="M135.624 256.007C135.741 255.897 135.895 255.816 136.06 255.821C136.213 255.827 136.401 255.873 136.5 255.998L137.926 257.79C138.033 257.925 138.109 258.046 138.112 258.226C138.114 258.378 138.048 258.56 137.935 258.666C137.818 258.776 137.664 258.858 137.498 258.852C137.346 258.847 137.158 258.801 137.058 258.675L135.633 256.884C135.526 256.749 135.449 256.627 135.447 256.447C135.446 256.295 135.512 256.113 135.624 256.007Z" fill="white"/>
<path d="M133.128 256.618C133.424 256.457 133.803 256.535 133.98 256.835C134.293 257.357 134.602 257.875 134.915 258.398C135.108 258.676 135.028 259.113 134.722 259.279C134.425 259.44 134.047 259.363 133.87 259.062C133.557 258.54 133.247 258.022 132.935 257.5C132.742 257.222 132.823 256.784 133.128 256.618Z" fill="white"/>
<path d="M143.651 249.782C143.709 252.318 143.75 253.73 143.75 253.73C143.75 253.73 148.3 255.81 154.403 253.622C154.403 253.622 154.585 252.194 154.915 249.634C157.36 230.573 167.806 148.757 170.226 126.658H143.254C141.454 154.785 143.197 231.506 143.651 249.782Z" fill="#EBBDA4"/>
<path d="M175.617 263.303L175.648 263.53C175.68 263.867 175.717 264.191 175.775 264.542C175.841 264.832 175.892 265.148 175.951 265.472L210.622 265.846C210.622 265.846 210.681 265.489 210.687 264.926C210.676 264.637 210.66 264.3 210.602 263.907C210.589 263.838 210.583 263.756 210.557 263.68C210.2 261.724 208.806 259.015 204.08 258.098C203.854 258.04 203.614 258.01 203.353 257.973H203.332C202.962 257.914 202.591 257.876 202.193 257.837C202.062 257.829 201.932 257.813 201.802 257.805C192.326 256.96 188.161 253.733 188.161 253.733C188.161 253.733 182.651 254.774 177.509 253.619C177.509 253.619 176.894 254.616 176.338 256.356C176.253 256.65 176.16 256.965 176.074 257.301C176.052 257.363 176.038 257.431 176.016 257.507C175.98 257.637 175.951 257.787 175.922 257.939C175.915 257.98 175.901 258.035 175.9 258.076C175.9 258.111 175.879 258.124 175.879 258.152C175.734 258.865 175.622 259.647 175.572 260.492C175.521 261.371 175.518 262.312 175.617 263.303Z" fill="#154340"/>
<path d="M191.599 254.052C191.482 253.942 191.328 253.86 191.163 253.865C190.988 253.872 190.859 253.936 190.722 254.042C190.626 254.117 190.529 254.19 190.433 254.264C189.972 254.612 189.504 254.949 189.027 255.275C188.891 255.368 188.785 255.48 188.738 255.642C188.695 255.79 188.711 255.988 188.795 256.121C188.962 256.385 189.354 256.548 189.64 256.352C190.305 255.898 190.953 255.422 191.589 254.929C191.706 254.838 191.774 254.634 191.775 254.492C191.778 254.34 191.712 254.158 191.599 254.052Z" fill="white"/>
<path d="M194.041 255.183C193.812 254.967 193.394 254.913 193.165 255.173C192.706 255.696 192.195 256.17 191.642 256.592C191.553 256.657 191.464 256.723 191.374 256.785C191.238 256.878 191.132 256.989 191.085 257.152C191.042 257.3 191.058 257.498 191.142 257.63C191.308 257.894 191.702 258.059 191.987 257.862C192.738 257.343 193.429 256.745 194.032 256.058C194.142 255.933 194.217 255.794 194.219 255.622C194.22 255.47 194.155 255.288 194.041 255.183Z" fill="white"/>
<path d="M196.29 256.007C196.173 255.897 196.019 255.816 195.853 255.821C195.701 255.827 195.513 255.873 195.413 255.998L193.988 257.79C193.881 257.925 193.804 258.046 193.802 258.226C193.8 258.378 193.866 258.56 193.979 258.666C194.096 258.776 194.25 258.858 194.415 258.852C194.568 258.847 194.756 258.801 194.856 258.675L196.281 256.884C196.388 256.749 196.465 256.627 196.467 256.447C196.468 256.295 196.402 256.113 196.29 256.007Z" fill="white"/>
<path d="M198.786 256.618C198.489 256.457 198.11 256.535 197.933 256.835C197.621 257.357 197.311 257.875 196.999 258.398C196.806 258.676 196.886 259.113 197.192 259.279C197.488 259.44 197.868 259.363 198.044 259.062C198.356 258.54 198.666 258.022 198.979 257.5C199.171 257.222 199.091 256.784 198.786 256.618Z" fill="white"/>
<path d="M167.955 126.658C170.391 148.84 175.998 231.193 177.254 249.848C177.419 252.276 177.51 253.622 177.51 253.622C183.621 255.811 188.163 253.729 188.163 253.729C188.163 253.729 188.295 252.325 188.518 249.807C190.145 231.556 196.726 154.637 194.926 126.657H167.955V126.658Z" fill="#EBBDA4"/>
<path d="M191.062 250.035C189.983 250.119 188.546 250.161 186.961 250.177H186.697C182.828 250.209 178.148 250.066 175.537 249.882C174.55 235.23 171.94 181.261 169.682 148.031C169.595 146.72 169.505 145.441 169.419 144.196V144.186C169.392 143.843 169.368 143.503 169.345 143.165C169.152 140.476 168.965 137.968 168.78 135.676C168.773 135.586 168.765 135.499 168.759 135.412C168.477 131.933 168.208 128.97 167.955 126.659H194.928C196.726 154.636 192.689 231.786 191.062 250.035Z" fill="#26645F"/>
<path d="M171.349 126.659C170.935 130.443 170.326 135.99 169.585 142.675C169.53 143.173 169.474 143.677 169.419 144.186C169.414 144.222 169.409 144.26 169.406 144.299C165.788 176.957 159.375 234.33 157.381 249.866C156.429 249.93 155.213 249.963 153.871 249.977C153.781 249.977 153.694 249.977 153.605 249.979C149.707 250.006 144.829 249.869 142.094 249.758C141.641 231.483 141.456 154.788 143.255 126.66L171.349 126.659Z" fill="#26645F"/>
<path d="M169.35 138.253C169.303 137.368 169.256 136.483 169.209 135.599C169.266 135.523 169.242 135.396 169.139 135.39C169.089 135.361 169.023 135.364 168.98 135.399C168.065 135.487 167.124 135.214 166.426 134.607C165.707 133.982 165.286 133.061 165.268 132.111C165.265 131.942 165.002 131.944 165.004 132.114C165.024 133.129 165.473 134.127 166.241 134.795C166.98 135.438 167.975 135.75 168.948 135.665C169.116 138.828 169.283 141.99 169.451 145.152C169.5 146.072 169.548 146.991 169.597 147.911C169.606 148.08 169.871 148.077 169.861 147.907C169.691 144.691 169.52 141.472 169.35 138.253Z" fill="#154340"/>
<path d="M192.731 133.985C190.328 134.329 187.871 133.282 186.461 131.307C186.093 130.791 185.8 130.226 185.592 129.628C185.537 129.468 185.282 129.537 185.338 129.698C186.149 132.038 188.199 133.8 190.648 134.215C191.362 134.335 192.084 134.342 192.801 134.239C192.968 134.216 192.897 133.961 192.731 133.985Z" fill="#154340"/>
<path d="M191.064 134.151C191.064 134.19 191.062 134.23 191.062 134.27C190.896 142.806 190.7 151.343 190.473 159.879C190.072 175.079 189.574 190.277 188.981 205.473C188.398 220.381 187.728 235.28 186.961 250.177H186.697C187.118 241.978 187.512 233.777 187.878 225.576C188.554 210.383 189.136 195.188 189.621 179.99C190.112 164.742 190.499 149.49 190.797 134.237C190.8 134.208 190.8 134.181 190.8 134.152C190.803 133.979 191.067 133.979 191.064 134.151Z" fill="#154340"/>
<path d="M166.478 139.338C165.547 147.508 164.617 155.678 163.685 163.845C162.04 178.27 160.397 192.695 158.754 207.12C157.124 221.402 155.497 235.691 153.87 249.976C153.78 249.976 153.693 249.976 153.604 249.979C154.511 242.02 155.418 234.064 156.325 226.107C157.97 211.682 159.614 197.257 161.257 182.832C162.911 168.336 164.561 153.836 166.215 139.338C166.233 139.172 166.497 139.172 166.478 139.338Z" fill="#154340"/>
<path d="M128.9 116.94C127.897 117.702 120.933 115.947 120.429 117.39C119.968 118.71 122.696 120.15 124.252 119.838C122.749 121.155 115.404 124.507 116.302 125.931C116.967 126.984 122.203 123.842 122.203 123.842C122.203 123.842 116.528 128.148 117.625 129.353C118.723 130.559 123.956 125.483 123.956 125.483C123.956 125.483 119.773 130.051 120.808 130.863C121.827 131.662 125.776 126.572 125.776 126.572C125.776 126.572 123.267 131.041 123.877 131.454C124.487 131.866 126.65 129.498 127.755 127.228C131.736 125.423 133.045 121.744 133.045 121.744L128.9 116.94Z" fill="#EBBDA4"/>
<path d="M155.98 95.6247C155.047 101.34 134.509 123.413 134.509 123.413C131.344 121.864 126.115 116.161 126.115 116.161L145.681 93.2528C145.681 93.2528 145.896 55.4047 154.319 52.3408C154.319 52.3408 157.557 85.9292 155.98 95.6247Z" fill="#E6FDF8"/>
<path d="M142.573 127.073C150.713 131.621 178.488 130.446 190.429 128.776C190.916 128.709 191.361 128.642 191.797 128.567C194.239 128.181 195.758 127.778 195.934 127.425L195.322 123.347L194.827 120.05L194.508 117.977L194.013 114.688L184.497 51.5423L181.543 50.804L178.246 49.9813L174.126 48.9492L164.266 49.0329L160.28 50.3588L156.906 51.4745L154.321 52.3387L144.671 113.739L144.142 117.07L143.806 119.227L143.278 122.567L142.573 127.073Z" fill="#EF8C86"/>
<path d="M162.938 49.4731L153.722 166.412H136.082L154.321 52.3379L162.938 49.4731Z" fill="#E6FDF8"/>
<path d="M152.999 60.6917C152.325 64.8056 151.653 68.9203 150.98 73.0342C150.306 77.1481 149.634 81.2628 148.96 85.3767C148.581 87.694 148.202 90.0105 147.823 92.3278C147.796 92.4937 148.05 92.5635 148.077 92.3962C148.751 88.2823 149.423 84.1676 150.097 80.0537C150.77 75.9397 151.443 71.8251 152.116 67.7112C152.495 65.3939 152.874 63.0774 153.253 60.7601C153.28 60.5942 153.026 60.5244 152.999 60.6917Z" fill="#BEFCF3"/>
<path d="M162.938 49.4731L155.519 57.2911L158.929 60.478L155.787 66.0437L160.245 83.6373L162.938 49.4731Z" fill="#BEFCF3"/>
<path d="M202.101 166.411H172.301L174.999 49.167L177.309 49.7449L178.253 49.9793L184.495 51.5402L202.101 166.411Z" fill="#E6FDF8"/>
<path d="M174.999 49.167L181.687 58.0088L178.343 61.5551L180.565 66.8519L174.206 83.6374L174.999 49.167Z" fill="#BEFCF3"/>
<path d="M162.306 117.483C161.435 117.572 161.1 118.652 159.691 118.922C158.281 119.192 155.933 118.399 154.928 118.894C153.923 119.39 147.633 124.721 148.92 126.028C149.686 126.806 153.017 123.692 153.135 123.717C153.253 123.742 149.51 128.087 150.68 129.043C151.849 129.998 155.488 124.456 155.637 124.521C155.785 124.586 153.304 129.12 154.582 129.746C155.861 130.371 157.822 125.731 157.975 125.735C158.127 125.738 157.515 129.92 158.486 130.174C159.456 130.429 160.426 125.35 160.655 125.354C160.884 125.36 162.895 126.357 164.607 125.995C166.32 125.634 168.387 122.463 167.877 121.202C167.366 119.94 163.439 117.367 162.306 117.483Z" fill="#FABB98"/>
<path d="M184.497 51.541C191.428 54.6878 192.993 80.8212 193.287 84.5362C193.713 89.9229 193.387 95.0413 189.812 99.1165C187.694 101.531 167.955 124.846 167.955 124.846C167.955 124.846 162.071 122.007 158.929 117.95L180.655 89.1894L179.982 70.4426L184.497 51.541Z" fill="#E6FDF8"/>
<path d="M194.172 93.2727C191.433 96.5301 188.695 99.7882 185.956 103.046C183.217 106.303 180.479 109.561 177.74 112.819C176.201 114.649 174.662 116.479 173.123 118.31C173.015 118.438 173.195 118.631 173.304 118.501C176.043 115.244 178.782 111.986 181.521 108.728C184.26 105.47 186.998 102.213 189.737 98.9552C191.276 97.1246 192.814 95.2947 194.353 93.4641C194.461 93.3356 194.281 93.1427 194.172 93.2727Z" fill="#BEFCF3"/>
<path d="M182.874 86.0129C182.023 87.1362 181.171 88.2589 180.318 89.3823C179.799 85.4937 179.409 81.5878 179.156 77.673C179.083 76.5538 179.022 75.4332 178.97 74.3126C178.963 74.1439 178.699 74.1425 178.706 74.3126C178.889 78.3166 179.209 82.3144 179.669 86.2963C179.797 87.4114 179.938 88.5258 180.088 89.6381C180.09 89.6512 180.094 89.6609 180.099 89.6712C178.564 91.6954 177.029 93.7195 175.494 95.7437C174.806 96.6506 174.118 97.5576 173.431 98.4639C173.329 98.5994 173.558 98.7308 173.658 98.5974C176.118 95.3538 178.578 92.1102 181.038 88.8666C181.726 87.9596 182.414 87.0526 183.102 86.1463C183.205 86.0108 182.976 85.8795 182.874 86.0129Z" fill="#BEFCF3"/>
<path d="M177.882 57.8168C174.762 57.4829 171.954 59.7497 171.62 62.8689L170.35 74.7378C170.254 75.6331 170.904 76.4391 171.799 76.5345L172.689 76.6299L172.673 76.7806C172.653 76.9687 172.789 77.1374 172.977 77.1574L173.385 77.201C173.573 77.221 173.741 77.0848 173.761 76.8968L173.904 75.5688C173.924 75.3807 173.788 75.2121 173.6 75.192L173.192 75.1485C173.004 75.1284 172.836 75.2646 172.816 75.4526L172.794 75.6504L171.904 75.555C171.549 75.5169 171.291 75.1969 171.329 74.8422L172.599 62.9732C172.875 60.394 175.199 58.5199 177.778 58.7957C180.357 59.0715 182.231 61.395 181.955 63.9742L180.685 75.8432C180.647 76.1986 180.327 76.4564 179.973 76.4184L179.015 76.3161L179.036 76.1184C179.056 75.9303 178.92 75.7617 178.732 75.7416L178.325 75.6981C178.137 75.678 177.968 75.8142 177.948 76.0022L177.805 77.3302C177.785 77.5183 177.922 77.6869 178.11 77.707L178.517 77.7505C178.705 77.7706 178.874 77.6344 178.894 77.4464L178.909 77.2957L179.868 77.398C180.763 77.4941 181.569 76.8436 181.664 75.9483L182.934 64.0793C183.268 60.9595 181.002 58.15 177.882 57.8168Z" fill="#154340"/>
<path d="M178.543 58.1122C178.395 58.6002 177.631 58.3914 177.778 57.9041C178.578 55.2592 178.401 52.2872 177.309 49.7446L178.253 49.979C179.226 52.5769 179.348 55.443 178.543 58.1122Z" fill="#154340"/>
<path d="M158.7 65.2802C158.7 66.6683 157.574 67.7938 156.186 67.7938C154.798 67.7938 153.673 66.6683 153.673 65.2802C153.673 63.892 154.798 62.7666 156.186 62.7666C157.574 62.7666 158.7 63.892 158.7 65.2802Z" fill="#154340"/>
<path d="M157.398 65.2802C157.398 65.9494 156.855 66.4921 156.186 66.4921C155.517 66.4921 154.974 65.9494 154.974 65.2802C154.974 64.611 155.517 64.0684 156.186 64.0684C156.855 64.0684 157.398 64.611 157.398 65.2802Z" fill="#01BCA7"/>
<path d="M158.699 50.8797C157.44 52.6411 157.049 54.1378 156.947 56.3002C156.843 58.5192 157.778 61.0238 156.628 63.0915C156.38 63.5367 157.063 63.9363 157.311 63.4911C158.485 61.3799 157.715 59.0101 157.726 56.7481C157.737 54.5643 158.545 52.2941 159.803 50.5146L158.699 50.8797Z" fill="#154340"/>
<path d="M175.957 37.4778C180.856 34.1326 183.942 28.2828 183.937 22.3507C183.936 21.1506 183.811 19.9291 183.34 18.8251C182.869 17.7211 182.014 16.7408 180.889 16.3253C179.42 12.5971 176.935 9.41644 173.479 7.38816C170.952 5.90463 168.075 5.05225 165.157 4.78195C163.194 4.60014 161.185 4.68171 159.301 5.26309C157.418 5.84448 155.663 6.95333 154.515 8.55508C153.367 10.1568 152.881 12.2729 153.436 14.1643C151.985 15.9313 151.037 18.2416 151.159 20.525C151.282 22.8084 152.287 25.0337 153.92 26.6354C155.135 27.8279 155.576 29.5548 156.86 30.6726C161.996 35.1454 169.149 37.6894 175.957 37.4778Z" fill="#381A08"/>
<path d="M177.815 33.7837C177.815 33.7837 174.14 41.265 173.963 51.2709C171.842 55.79 165.722 55.0586 164.25 50.9785C164.361 47.1743 163.707 45.3852 162.509 44.0655C162.41 43.9549 162.311 43.8574 162.207 43.7516C162.136 43.6763 162.065 43.6106 161.986 43.5401C161.845 43.408 161.681 43.2857 161.526 43.1495C161.305 42.9746 161.076 42.7997 160.837 42.6207H160.832C159.892 41.9176 158.79 41.1744 157.567 40.0697C155.785 38.4728 154.462 36.2862 153.956 32.8767C153.945 32.836 153.939 32.7952 153.933 32.7495C153.922 32.6998 153.916 32.65 153.909 32.5995C153.898 32.509 153.89 32.4267 153.883 32.3403C153.872 32.2995 153.871 32.2629 153.865 32.2269C153.489 28.8907 153.824 24.4408 155.167 18.3054C156.561 11.9448 172.078 9.66693 176.234 17.8492C177.943 21.229 177.815 33.7837 177.815 33.7837Z" fill="#EBBDA4"/>
<path d="M154.671 17.251C155.12 17.8829 155.883 18.2029 156.618 18.4483C161.318 20.0176 166.609 19.739 171.119 17.6858C171.109 18.2942 171.097 18.7705 171.21 19.3685C171.324 19.9658 171.563 20.5534 171.982 20.993C172.402 21.4327 173.019 21.7071 173.621 21.6256C173.353 23.443 173.621 25.4063 174.365 27.0862C175.11 28.766 176.338 30.2275 177.865 31.2499C178.673 28.3948 179.274 25.4423 179.089 22.4807C178.904 19.5192 177.865 16.5307 175.77 14.4291C174.393 13.0479 172.616 12.1029 170.747 11.5464C167.839 10.6802 164.662 10.7369 161.786 11.7061C158.911 12.676 156.463 14.801 154.671 17.251Z" fill="#381A08"/>
<path d="M161.229 31.1803C161.006 31.0662 160.769 30.9978 160.518 30.9826C160.294 30.9687 160.048 30.9985 159.862 31.1326C159.663 31.2771 159.563 31.5011 159.543 31.7423C159.524 31.9732 159.6 32.2007 159.685 32.4108C159.73 32.5235 159.839 32.6189 159.971 32.5781C160.079 32.5442 160.187 32.4136 160.138 32.2919C160.076 32.1377 160.007 31.9704 160.009 31.8018C160.01 31.7154 160.032 31.6269 160.084 31.5577C160.081 31.5626 160.079 31.5667 160.076 31.5709C160.124 31.4962 160.215 31.4693 160.297 31.4547C160.303 31.4534 160.31 31.4527 160.319 31.4513C160.337 31.4513 160.355 31.4485 160.372 31.4478C160.419 31.4457 160.466 31.4464 160.513 31.4492C160.537 31.4506 160.561 31.4534 160.584 31.4554C160.596 31.4568 160.598 31.4561 160.601 31.4568C160.605 31.4575 160.605 31.4575 160.617 31.4596C160.762 31.4858 160.886 31.5453 161.024 31.5944C161.127 31.631 161.255 31.6006 161.31 31.4997C161.366 31.3967 161.345 31.2397 161.229 31.1803Z" fill="#C16B5B"/>
<path d="M156.055 25.2983C157.285 24.6333 158.776 24.5704 160.031 25.2195C160.338 25.3785 160.508 25.7857 160.334 26.1044C160.109 26.5178 159.705 26.5178 159.326 26.3456C158.988 26.1928 158.623 26.0988 158.253 26.0691C158.254 26.049 158.285 26.0843 158.265 26.0829C157.791 26.0567 157.322 26.1527 156.89 26.347C156.865 26.3588 156.839 26.3705 156.798 26.3899C156.496 26.5502 156.088 26.5392 155.886 26.217C155.712 25.9412 155.73 25.4739 156.055 25.2983Z" fill="black"/>
<path d="M164.028 25.3546C165.33 24.8472 166.818 24.9688 167.982 25.7687C168.267 25.9643 168.385 26.3895 168.174 26.684C167.969 26.9695 167.563 27.0849 167.259 26.8755C167.142 26.7953 167.02 26.7254 166.896 26.6556C166.884 26.6494 166.887 26.6508 166.879 26.6466C166.857 26.6363 166.834 26.6266 166.812 26.6169C166.764 26.5962 166.714 26.5761 166.665 26.5575C166.533 26.5077 166.397 26.4662 166.26 26.4323C166.225 26.424 166.005 26.3577 166.175 26.4109C166.118 26.3929 166.049 26.3915 165.991 26.3853C165.859 26.3701 165.727 26.3618 165.594 26.3611C165.523 26.3604 165.453 26.3646 165.382 26.3667C165.374 26.3667 165.371 26.3667 165.366 26.3667C165.355 26.368 165.342 26.3701 165.321 26.3722C165.189 26.3881 165.059 26.4116 164.93 26.4427C164.862 26.4593 164.793 26.478 164.726 26.4987C164.699 26.507 164.672 26.516 164.645 26.525C164.641 26.527 164.643 26.5264 164.636 26.5284C164.634 26.5291 164.632 26.5291 164.631 26.5298C164.629 26.5305 164.627 26.5312 164.625 26.5319C164.627 26.5312 164.627 26.5312 164.629 26.5305C164.309 26.6522 163.906 26.5913 163.745 26.2464C163.608 25.9498 163.684 25.4887 164.028 25.3546Z" fill="black"/>
<path d="M163.605 34.387C162.763 35.0278 161.695 35.3223 160.644 35.2256C160.353 35.1986 160.329 35.6514 160.619 35.6784C161.793 35.7869 162.971 35.4378 163.908 34.7251C164.14 34.5474 163.836 34.2107 163.605 34.387Z" fill="#8E4136"/>
<path d="M166.607 29.8398C166.627 30.4302 166.164 30.9244 165.574 30.9445C164.983 30.9645 164.489 30.5014 164.469 29.911C164.45 29.3206 164.912 28.8263 165.503 28.8063C166.093 28.7862 166.588 29.2494 166.607 29.8398Z" fill="black"/>
<path d="M165.465 29.5355C165.47 29.7076 165.335 29.8514 165.163 29.8576C164.991 29.8631 164.847 29.7283 164.841 29.5562C164.835 29.3841 164.97 29.2403 165.142 29.2341C165.315 29.2285 165.458 29.3633 165.465 29.5355Z" fill="white"/>
<path d="M158.805 29.6239C158.824 30.2143 158.361 30.7086 157.771 30.7286C157.181 30.7487 156.686 30.2855 156.666 29.6951C156.647 29.1048 157.109 28.6105 157.7 28.5904C158.29 28.5711 158.785 29.0336 158.805 29.6239Z" fill="black"/>
<path d="M157.661 29.3196C157.667 29.4918 157.532 29.6356 157.36 29.6418C157.188 29.6473 157.044 29.5125 157.038 29.3404C157.032 29.1682 157.167 29.0245 157.339 29.0182C157.511 29.0127 157.656 29.1475 157.661 29.3196Z" fill="white"/>
<path d="M181.188 34.1711C179.817 35.7093 177.715 36.0736 176.494 34.9855C175.273 33.8967 175.396 31.7675 176.767 30.2293C178.138 28.6912 180.24 28.3269 181.46 29.415C182.681 30.5038 182.56 32.633 181.188 34.1711Z" fill="#EBBDA4"/>
<path d="M180.574 30.1616C180.02 29.8471 179.269 29.8381 178.566 30.1395C178.215 30.2895 177.959 30.4769 177.781 30.7126C177.545 31.0251 177.47 31.4239 177.585 31.7537C177.688 32.0496 177.915 32.2466 178.117 32.4208C178.262 32.5466 178.399 32.6655 178.475 32.8045C178.591 33.0188 178.551 33.3119 178.382 33.4875C178.213 33.6624 177.922 33.7115 177.704 33.6029C177.575 33.5386 177.42 33.5912 177.357 33.7191C177.293 33.8463 177.344 34.0025 177.473 34.0668C177.613 34.1366 177.766 34.1726 177.921 34.1774C178.228 34.1864 178.54 34.0709 178.756 33.847C179.081 33.5103 179.154 32.969 178.931 32.5577C178.811 32.3365 178.623 32.1733 178.457 32.0295C178.29 31.8857 178.133 31.7489 178.075 31.5829C178.017 31.417 178.064 31.1979 178.195 31.0244C178.248 30.9545 178.319 30.8923 178.397 30.8322C178.654 30.8377 178.973 30.9269 179.131 31.1087C179.308 31.3147 179.385 31.6078 179.333 31.8733C179.306 32.0136 179.397 32.1491 179.537 32.1768C179.551 32.1795 179.566 32.1809 179.579 32.1816C179.704 32.1858 179.816 32.0987 179.841 31.9728C179.924 31.5491 179.805 31.1004 179.523 30.7714C179.418 30.6497 179.285 30.5647 179.144 30.4955C179.575 30.3932 179.997 30.4285 180.319 30.6117C180.717 30.8377 181.006 31.3991 180.784 31.8422C180.721 31.9701 180.773 32.1256 180.9 32.1892C181.028 32.2528 181.183 32.2017 181.248 32.0731C181.568 31.4281 181.26 30.5522 180.574 30.1616Z" fill="#C16B5B"/>
<path d="M273.52 263.303L273.551 263.53C273.582 263.867 273.62 264.191 273.678 264.542C273.744 264.832 273.795 265.148 273.854 265.472L308.524 265.846C308.524 265.846 308.583 265.489 308.589 264.926C308.579 264.637 308.562 264.3 308.504 263.907C308.491 263.838 308.486 263.756 308.459 263.68C308.102 261.724 306.708 259.015 301.983 258.098C301.757 258.04 301.516 258.01 301.255 257.973H301.235C300.864 257.914 300.494 257.876 300.095 257.837C299.965 257.829 299.834 257.813 299.704 257.805C290.228 256.96 286.063 253.733 286.063 253.733C286.063 253.733 280.554 254.774 275.411 253.619C275.411 253.619 274.796 254.616 274.241 256.356C274.155 256.65 274.062 256.965 273.976 257.301C273.954 257.363 273.94 257.431 273.919 257.507C273.883 257.637 273.854 257.787 273.825 257.939C273.818 257.98 273.803 258.035 273.802 258.076C273.802 258.111 273.781 258.124 273.781 258.152C273.636 258.865 273.524 259.647 273.474 260.492C273.424 261.371 273.42 262.312 273.52 263.303Z" fill="#26645F"/>
<path d="M289.502 254.052C289.385 253.942 289.231 253.86 289.066 253.865C288.891 253.872 288.763 253.936 288.625 254.042C288.529 254.117 288.433 254.19 288.336 254.264C287.875 254.612 287.406 254.949 286.93 255.275C286.794 255.368 286.688 255.48 286.641 255.642C286.599 255.79 286.614 255.988 286.698 256.121C286.865 256.385 287.257 256.548 287.544 256.352C288.208 255.898 288.856 255.422 289.492 254.929C289.608 254.838 289.676 254.634 289.678 254.492C289.68 254.34 289.615 254.158 289.502 254.052Z" fill="white"/>
<path d="M291.944 255.183C291.715 254.967 291.297 254.913 291.068 255.173C290.609 255.696 290.097 256.17 289.544 256.592C289.456 256.657 289.366 256.723 289.276 256.785C289.14 256.878 289.034 256.989 288.987 257.152C288.945 257.3 288.961 257.498 289.044 257.63C289.21 257.894 289.604 258.059 289.89 257.862C290.64 257.343 291.332 256.745 291.935 256.058C292.045 255.933 292.119 255.794 292.121 255.622C292.123 255.47 292.057 255.288 291.944 255.183Z" fill="white"/>
<path d="M294.192 256.007C294.075 255.897 293.921 255.816 293.755 255.821C293.603 255.827 293.415 255.873 293.315 255.998L291.89 257.79C291.783 257.925 291.706 258.046 291.704 258.226C291.702 258.378 291.768 258.56 291.881 258.666C291.998 258.776 292.152 258.858 292.318 258.852C292.47 258.847 292.658 258.801 292.758 258.675L294.183 256.884C294.29 256.749 294.367 256.627 294.369 256.447C294.37 256.295 294.304 256.113 294.192 256.007Z" fill="white"/>
<path d="M296.688 256.618C296.392 256.457 296.012 256.535 295.836 256.835C295.523 257.357 295.214 257.875 294.901 258.398C294.708 258.676 294.789 259.113 295.094 259.279C295.391 259.44 295.769 259.363 295.946 259.062C296.259 258.54 296.568 258.022 296.881 257.5C297.074 257.222 296.993 256.784 296.688 256.618Z" fill="white"/>
<path d="M286.165 249.782C286.107 252.318 286.066 253.73 286.066 253.73C286.066 253.73 281.516 255.81 275.412 253.622C275.412 253.622 275.231 252.194 274.9 249.634C272.456 230.573 262.009 148.757 259.589 126.658H286.561C288.362 154.785 286.619 231.506 286.165 249.782Z" fill="#754933"/>
<path d="M254.199 263.303L254.167 263.53C254.137 263.867 254.099 264.191 254.041 264.542C253.975 264.832 253.924 265.148 253.865 265.472L219.193 265.846C219.193 265.846 219.135 265.489 219.128 264.926C219.139 264.637 219.156 264.3 219.213 263.907C219.227 263.838 219.232 263.756 219.259 263.68C219.616 261.724 221.009 259.015 225.735 258.098C225.961 258.04 226.202 258.01 226.462 257.973H226.483C226.854 257.914 227.224 257.876 227.622 257.837C227.753 257.829 227.884 257.813 228.014 257.805C237.489 256.96 241.655 253.733 241.655 253.733C241.655 253.733 247.164 254.774 252.307 253.619C252.307 253.619 252.923 254.616 253.477 256.356C253.563 256.65 253.656 256.965 253.742 257.301C253.763 257.363 253.778 257.431 253.799 257.507C253.835 257.637 253.864 257.787 253.893 257.939C253.901 257.98 253.915 258.035 253.915 258.076C253.916 258.111 253.937 258.124 253.937 258.152C254.082 258.865 254.193 259.647 254.244 260.492C254.294 261.371 254.298 262.312 254.199 263.303Z" fill="#26645F"/>
<path d="M238.217 254.052C238.333 253.942 238.488 253.86 238.653 253.865C238.828 253.872 238.956 253.936 239.093 254.042C239.189 254.117 239.286 254.19 239.383 254.264C239.844 254.612 240.313 254.949 240.789 255.275C240.924 255.368 241.031 255.48 241.078 255.642C241.121 255.79 241.104 255.988 241.02 256.121C240.854 256.385 240.461 256.548 240.175 256.352C239.511 255.898 238.862 255.422 238.226 254.929C238.109 254.838 238.042 254.634 238.04 254.492C238.038 254.34 238.103 254.158 238.217 254.052Z" fill="white"/>
<path d="M235.774 255.183C236.004 254.967 236.422 254.913 236.65 255.173C237.11 255.696 237.621 256.17 238.174 256.592C238.262 256.657 238.352 256.723 238.442 256.785C238.578 256.878 238.684 256.989 238.731 257.152C238.773 257.3 238.757 257.498 238.674 257.63C238.508 257.894 238.114 258.059 237.828 257.862C237.078 257.343 236.386 256.745 235.783 256.058C235.673 255.933 235.599 255.794 235.597 255.622C235.596 255.47 235.661 255.288 235.774 255.183Z" fill="white"/>
<path d="M233.526 256.007C233.643 255.897 233.797 255.816 233.962 255.821C234.114 255.827 234.303 255.873 234.403 255.998L235.827 257.79C235.935 257.925 236.012 258.046 236.014 258.226C236.016 258.378 235.951 258.56 235.837 258.666C235.72 258.776 235.566 258.858 235.401 258.852C235.249 258.847 235.06 258.801 234.961 258.675L233.536 256.884C233.429 256.749 233.351 256.627 233.349 256.447C233.348 256.295 233.413 256.113 233.526 256.007Z" fill="white"/>
<path d="M231.03 256.618C231.327 256.457 231.707 256.535 231.883 256.835C232.195 257.357 232.505 257.875 232.817 258.398C233.01 258.676 232.93 259.113 232.625 259.279C232.328 259.44 231.949 259.363 231.772 259.062C231.46 258.54 231.15 258.022 230.838 257.5C230.644 257.222 230.725 256.784 231.03 256.618Z" fill="white"/>
<path d="M261.861 126.658C259.425 148.84 253.817 231.193 252.562 249.848C252.397 252.276 252.306 253.622 252.306 253.622C246.195 255.811 241.653 253.729 241.653 253.729C241.653 253.729 241.521 252.325 241.298 249.807C239.671 231.556 233.089 154.637 234.89 126.657H261.861V126.658Z" fill="#754933"/>
<path d="M261.861 126.658C259.425 148.84 255.534 231.226 254.279 249.881C250.53 250.145 242.504 250.324 238.754 250.035C237.127 231.784 233.089 154.637 234.889 126.658H261.861Z" fill="#538E80"/>
<path d="M287.723 249.758C283.974 249.907 276.185 250.114 272.436 249.865C269.992 230.805 260.887 148.757 258.467 126.657H286.561C288.362 154.786 288.177 231.483 287.723 249.758Z" fill="#538E80"/>
<path d="M263.942 131.887C263.713 133.22 262.54 134.164 261.201 134.131C261.176 134.003 260.954 134.027 260.942 134.18C260.646 137.845 260.349 141.511 260.054 145.176C259.971 146.201 259.888 147.227 259.805 148.252C259.792 148.421 260.055 148.406 260.069 148.238C260.365 144.573 260.661 140.908 260.957 137.243C261.034 136.293 261.111 135.344 261.187 134.394C262.649 134.446 263.952 133.391 264.2 131.944C264.228 131.777 263.971 131.72 263.942 131.887Z" fill="#FFE3D6"/>
<path d="M275.495 52.3379C280.129 54.0814 283.226 89.604 283.226 89.604L306.238 114.073L299.931 119.555C299.931 119.555 280.331 101.348 277.167 98.116C274.002 94.8841 273.194 90.2379 273.396 86.8042C273.597 83.3705 275.495 52.3379 275.495 52.3379Z" fill="#754933"/>
<path d="M303.672 113.085C304.926 113.822 310.002 114.968 311.092 116.55C312.182 118.133 315.392 124.32 314.413 124.966C313.792 125.375 311.295 121.583 311.295 121.583C311.295 121.583 313.157 126.63 312.172 126.941C311.186 127.252 309.403 122.121 309.403 122.121C309.403 122.121 310.808 127.691 309.588 127.978C308.368 128.266 307.435 122.474 307.435 122.474C307.435 122.474 307.737 124.494 306.243 125.389C305.086 126.081 303.316 125.996 303.198 125.313C303.082 124.63 304.985 124.137 305.144 123.903C305.303 123.669 305.287 122.519 305.287 122.519C302.299 122.86 299.93 119.555 299.93 119.555L303.672 113.085Z" fill="#754933"/>
<path d="M275.495 52.3379C281.7 54.7319 284.393 80.9461 284.393 80.9461C284.393 80.9461 281.23 81.8434 275.495 81.7535V52.3379Z" fill="#538E80"/>
<path d="M287.243 127.073C279.103 131.621 251.328 130.446 239.386 128.776C238.9 128.709 238.455 128.642 238.018 128.567C235.577 128.181 234.058 127.778 233.882 127.425L234.494 123.347L234.989 120.05L235.308 117.977L235.803 114.688L245.318 51.5423L248.272 50.804L251.571 49.9813L255.691 48.9492L265.551 49.0329L269.537 50.3588L272.91 51.4745L275.495 52.3387L285.145 113.739L285.674 117.07L286.01 119.227L286.539 122.567L287.243 127.073Z" fill="#538E80"/>
<path d="M272.863 130.056C268.393 130.264 263.917 130.313 259.445 130.2C254.973 130.087 250.504 129.814 246.052 129.382C243.544 129.137 241.043 128.843 238.548 128.498C238.382 128.475 238.31 128.729 238.478 128.752C242.922 129.367 247.386 129.824 251.862 130.118C256.327 130.412 260.801 130.546 265.275 130.519C267.806 130.504 270.336 130.437 272.863 130.32C273.032 130.312 273.033 130.048 272.863 130.056Z" fill="#FFE3D6"/>
<path d="M252.789 49.6743L251.614 54.3607L262.084 59.5738L270.055 54.4782L268.264 49.9336L252.789 49.6743Z" fill="#26645F"/>
<path d="M252.79 49.6743L262.084 59.5738L268.264 49.9336L265.552 49.0314L255.692 48.9478L252.79 49.6743Z" fill="#754933"/>
<path d="M265.697 68.7821L245.987 84.2459L250.099 64.5182L245.32 51.541C237.576 54.553 234.414 83.3423 234.018 88.4524C233.57 94.2428 240.302 99.8804 246.946 97.1511C253.589 94.4219 271.255 74.4791 271.255 74.4791L265.697 68.7821Z" fill="#754933"/>
<path d="M264.734 70.2576C264.702 69.3824 265.725 68.9026 265.799 67.4696C265.873 66.0365 264.765 63.8202 265.117 62.7556C265.47 61.6917 269.886 54.7289 271.358 55.8246C272.234 56.4765 269.607 60.2033 269.648 60.3173C269.689 60.4307 273.479 56.126 274.586 57.1533C275.693 58.1805 270.704 62.5468 270.789 62.6844C270.874 62.8219 275.023 59.7415 275.818 60.9215C276.613 62.1023 272.287 64.6829 272.311 64.8329C272.335 64.9837 276.393 63.8029 276.778 64.7292C277.163 65.6556 272.266 67.314 272.303 67.5401C272.339 67.7655 273.604 69.6209 273.48 71.3664C273.357 73.112 270.501 75.5965 269.181 75.2647C267.863 74.9322 264.776 71.3955 264.734 70.2576Z" fill="#754933"/>
<path d="M245.319 51.541C236.543 53.7449 233.221 80.6891 233.356 80.5709C233.491 80.4527 241.256 82.9663 247.361 82.2031L251.131 65.1009L245.319 51.541Z" fill="#538E80"/>
<path d="M251.418 65.1035C250.84 65.9724 250.263 66.8407 249.685 67.7097C249.846 66.7011 250.017 65.6938 250.202 64.6894C250.233 64.5235 249.979 64.4523 249.948 64.6189C249.558 66.7377 249.219 68.8662 248.932 71.0017C248.643 73.1578 248.407 75.3209 248.225 77.4882C248.123 78.7069 248.038 79.9264 247.969 81.1479C247.959 81.3173 248.223 81.3173 248.232 81.1479C248.475 76.8376 248.927 72.5398 249.592 68.2738V68.2724C249.617 68.2641 249.641 68.2496 249.659 68.2219C250.321 67.2272 250.983 66.2317 251.645 65.2369C251.74 65.0945 251.512 64.9624 251.418 65.1035Z" fill="#FFE3D6"/>
<path d="M278.583 71.6703C278.145 68.5601 277.647 65.4589 277.091 62.3681C276.776 60.6198 276.442 58.8756 276.09 57.1349C276.057 56.969 275.802 57.0388 275.836 57.2047C276.459 60.2831 277.023 63.3726 277.528 66.4724C278.033 69.5708 278.479 72.6796 278.865 75.7953C279.082 77.547 279.279 79.3016 279.459 81.0575C279.476 81.2248 279.739 81.2261 279.723 81.0575C279.403 77.9217 279.022 74.7915 278.583 71.6703Z" fill="#FFE3D6"/>
<path d="M253.868 38.0313C252.359 38.4716 250.587 37.4333 250.233 35.9014C248.382 36.0984 246.459 35.107 245.547 33.4853C244.634 31.8635 244.785 29.7052 245.914 28.2258C244.776 27.0409 244.165 25.3694 244.267 23.731C244.369 22.0919 245.185 20.5102 246.46 19.476C245.739 17.4691 245.594 15.1581 246.558 13.2563C247.522 11.3546 249.778 10.0425 251.837 10.5976C252.678 7.44871 255.284 4.84872 258.474 4.17815C261.664 3.50759 265.182 4.76853 267.22 7.31183C268.93 6.33433 271.103 6.21335 272.912 6.99521C274.72 7.77708 276.121 9.44243 276.582 11.358C277.945 11.4603 279.212 12.3964 279.71 13.6697C280.208 14.9431 279.913 16.4896 278.981 17.4899C279.763 18.28 280.065 19.6115 280.061 20.7231C280.058 21.834 279.598 22.9374 278.812 23.7227C279.354 24.9207 279.323 26.3061 278.856 27.5359C278.39 28.7657 277.42 29.7951 276.22 30.3329C273.13 31.7176 270.752 34.2526 267.497 35.1866C262.973 36.4855 258.387 36.713 253.868 38.0313Z" fill="#381A08"/>
<path d="M252.002 33.7832C252.002 33.7832 255.676 41.2645 255.853 51.2704C257.974 55.7895 264.094 55.0581 265.566 50.978C265.456 47.1738 266.109 45.3847 267.307 44.065C267.407 43.9544 267.506 43.8569 267.609 43.7511C267.681 43.6758 267.751 43.6101 267.831 43.5396C267.972 43.4076 268.135 43.2852 268.291 43.149C268.511 42.9741 268.741 42.7992 268.979 42.6202H268.984C269.924 41.9171 271.026 41.174 272.249 40.0693C274.031 38.4723 275.355 36.2858 275.861 32.8762C275.871 32.8355 275.877 32.7947 275.884 32.7491C275.895 32.6993 275.901 32.6495 275.907 32.599C275.919 32.5085 275.926 32.4262 275.934 32.3398C275.944 32.299 275.946 32.2624 275.951 32.2264C276.327 28.8902 275.992 24.4403 274.65 18.305C273.256 11.9443 257.738 9.66644 253.583 17.8487C251.872 21.2285 252.002 33.7832 252.002 33.7832Z" fill="#754933"/>
<path d="M275.732 20.0644C274.674 20.3761 273.433 19.6012 273.248 18.5145C272.2 19.1892 270.658 18.9327 269.885 17.9552C269.071 18.7336 267.899 19.12 266.782 18.979C265.665 18.838 264.625 18.1723 264.03 17.2162C263.591 18.1737 262.788 18.9597 261.82 19.3772C260.853 19.7954 259.731 19.8418 258.732 19.5051C259.04 20.5994 258.879 21.8182 258.297 22.7943C257.714 23.7704 256.719 24.4915 255.609 24.7397C255.81 25.7407 255.823 26.7824 255.653 27.789C255.484 28.7955 255.053 29.7751 254.334 30.4989C253.614 31.2234 252.591 31.6693 251.574 31.5898C250.307 26.5294 250.963 21.0737 253.449 16.4876C254.428 14.6812 255.72 12.9771 257.49 11.9346C259.839 10.552 262.714 10.496 265.439 10.541C267.122 10.5686 268.823 10.6232 270.446 11.0691C272.068 11.515 273.627 12.393 274.585 13.777C275.841 15.5958 275.731 17.855 275.732 20.0644Z" fill="#381A08"/>
<path d="M268.588 31.1803C268.811 31.0662 269.048 30.9978 269.299 30.9826C269.522 30.9687 269.768 30.9985 269.954 31.1326C270.153 31.2771 270.254 31.5011 270.274 31.7423C270.292 31.9732 270.217 32.2007 270.132 32.4108C270.086 32.5235 269.978 32.6189 269.846 32.5781C269.737 32.5442 269.629 32.4136 269.678 32.2919C269.741 32.1377 269.81 31.9704 269.808 31.8018C269.807 31.7154 269.784 31.6269 269.732 31.5577C269.735 31.5626 269.738 31.5667 269.741 31.5709C269.693 31.4962 269.602 31.4693 269.52 31.4547C269.514 31.4534 269.508 31.4527 269.498 31.4513C269.481 31.4513 269.463 31.4485 269.445 31.4478C269.398 31.4457 269.351 31.4464 269.304 31.4492C269.281 31.4506 269.257 31.4534 269.233 31.4554C269.221 31.4568 269.219 31.4561 269.216 31.4568C269.212 31.4575 269.212 31.4575 269.201 31.4596C269.055 31.4858 268.931 31.5453 268.794 31.5944C268.69 31.631 268.562 31.6006 268.507 31.4997C268.45 31.3967 268.471 31.2397 268.588 31.1803Z" fill="#573322"/>
<path d="M273.761 25.2983C272.531 24.6333 271.04 24.5704 269.785 25.2195C269.478 25.3785 269.308 25.7857 269.481 26.1044C269.707 26.5178 270.11 26.5178 270.49 26.3456C270.828 26.1928 271.193 26.0988 271.563 26.0691C271.562 26.049 271.53 26.0843 271.55 26.0829C272.025 26.0567 272.493 26.1527 272.925 26.347C272.951 26.3588 272.977 26.3705 273.017 26.3899C273.32 26.5502 273.728 26.5392 273.93 26.217C274.104 25.9412 274.085 25.4739 273.761 25.2983Z" fill="black"/>
<path d="M265.788 25.3546C264.485 24.8472 262.998 24.9688 261.834 25.7687C261.549 25.9643 261.431 26.3895 261.642 26.684C261.847 26.9695 262.253 27.0849 262.557 26.8755C262.674 26.7953 262.796 26.7254 262.92 26.6556C262.932 26.6494 262.929 26.6508 262.937 26.6466C262.959 26.6363 262.982 26.6266 263.004 26.6169C263.052 26.5962 263.102 26.5761 263.151 26.5575C263.283 26.5077 263.419 26.4662 263.556 26.4323C263.591 26.424 263.811 26.3577 263.641 26.4109C263.698 26.3929 263.766 26.3915 263.825 26.3853C263.957 26.3701 264.089 26.3618 264.222 26.3611C264.293 26.3604 264.363 26.3646 264.434 26.3667C264.442 26.3667 264.445 26.3667 264.45 26.3667C264.461 26.368 264.474 26.3701 264.495 26.3722C264.626 26.3881 264.757 26.4116 264.886 26.4427C264.954 26.4593 265.023 26.478 265.09 26.4987C265.117 26.507 265.144 26.516 265.171 26.525C265.175 26.527 265.173 26.5264 265.18 26.5284C265.182 26.5291 265.184 26.5291 265.186 26.5298C265.188 26.5305 265.19 26.5312 265.192 26.5319C265.189 26.5312 265.19 26.5312 265.188 26.5305C265.508 26.6522 265.911 26.5913 266.071 26.2464C266.208 25.9498 266.132 25.4887 265.788 25.3546Z" fill="black"/>
<path d="M266.211 34.387C267.053 35.0278 268.121 35.3223 269.172 35.2256C269.463 35.1986 269.487 35.6514 269.197 35.6784C268.023 35.7869 266.845 35.4378 265.908 34.7251C265.676 34.5474 265.98 34.2107 266.211 34.387Z" fill="#573322"/>
<path d="M263.209 29.8398C263.189 30.4302 263.652 30.9244 264.242 30.9445C264.833 30.9645 265.327 30.5014 265.347 29.911C265.367 29.3206 264.904 28.8263 264.313 28.8063C263.723 28.7862 263.228 29.2494 263.209 29.8398Z" fill="black"/>
<path d="M264.351 29.5355C264.346 29.7076 264.481 29.8514 264.653 29.8576C264.825 29.8631 264.969 29.7283 264.975 29.5562C264.98 29.3841 264.846 29.2403 264.673 29.2341C264.501 29.2285 264.357 29.3633 264.351 29.5355Z" fill="white"/>
<path d="M271.011 29.6239C270.992 30.2143 271.454 30.7086 272.045 30.7286C272.635 30.7487 273.129 30.2855 273.15 29.6951C273.17 29.1048 272.706 28.6105 272.116 28.5904C271.526 28.5711 271.031 29.0336 271.011 29.6239Z" fill="black"/>
<path d="M272.155 29.3196C272.149 29.4918 272.284 29.6356 272.456 29.6418C272.628 29.6473 272.772 29.5125 272.778 29.3404C272.784 29.1682 272.649 29.0245 272.477 29.0182C272.305 29.0127 272.16 29.1475 272.155 29.3196Z" fill="white"/>
<path d="M248.628 34.1711C249.999 35.7093 252.101 36.0736 253.322 34.9855C254.542 33.8967 254.42 31.7675 253.049 30.2293C251.678 28.6912 249.576 28.3269 248.355 29.415C247.134 30.5038 247.256 32.633 248.628 34.1711Z" fill="#754933"/>
<path d="M249.242 30.1616C249.796 29.8471 250.547 29.8381 251.25 30.1395C251.6 30.2895 251.857 30.4769 252.035 30.7126C252.271 31.0251 252.346 31.4239 252.231 31.7537C252.128 32.0496 251.9 32.2466 251.699 32.4208C251.554 32.5466 251.416 32.6655 251.34 32.8045C251.225 33.0188 251.264 33.3119 251.434 33.4875C251.602 33.6624 251.894 33.7115 252.112 33.6029C252.24 33.5386 252.395 33.5912 252.459 33.7191C252.522 33.8463 252.471 34.0025 252.343 34.0668C252.202 34.1366 252.05 34.1726 251.895 34.1774C251.588 34.1864 251.276 34.0709 251.06 33.847C250.735 33.5103 250.662 32.969 250.885 32.5577C251.006 32.3365 251.194 32.1733 251.36 32.0295C251.526 31.8857 251.683 31.7489 251.741 31.5829C251.799 31.417 251.752 31.1979 251.621 31.0244C251.568 30.9545 251.497 30.8923 251.419 30.8322C251.162 30.8377 250.843 30.9269 250.686 31.1087C250.509 31.3147 250.431 31.6078 250.483 31.8733C250.511 32.0136 250.419 32.1491 250.278 32.1768C250.265 32.1795 250.251 32.1809 250.236 32.1816C250.112 32.1858 250 32.0987 249.975 31.9728C249.891 31.5491 250.01 31.1004 250.292 30.7714C250.397 30.6497 250.531 30.5647 250.671 30.4955C250.24 30.3932 249.818 30.4285 249.496 30.6117C249.098 30.8377 248.809 31.3991 249.031 31.8422C249.094 31.9701 249.042 32.1256 248.914 32.1892C248.787 32.2528 248.632 32.2017 248.567 32.0731C248.247 31.4281 248.556 30.5522 249.242 30.1616Z" fill="#573322"/>
<path d="M211.486 19.7433C208.875 21.2047 206.65 23.1916 205.245 25.4984C204.879 26.0978 204.561 26.7248 204.295 27.3726C203.442 29.4451 203.519 31.8038 202.38 33.7636C201.347 35.5417 199.473 36.663 197.925 38.0407C196.377 39.4185 195.047 41.4454 195.644 43.4087C196.218 45.2939 198.37 46.4159 198.934 48.3038C199.639 50.666 197.584 52.919 195.536 54.3472C193.488 55.7761 191.065 57.2202 190.544 59.6246C190.171 61.348 190.945 63.1668 192.18 64.4575C193.414 65.7482 195.058 66.5888 196.714 67.3008C207.385 71.8876 220.021 71.8869 230.664 67.2988C233.405 66.1166 236.28 64.3116 236.887 61.4476C237.474 58.6727 235.723 55.989 234.109 53.6262C232.494 51.2633 230.869 48.4504 231.719 45.7412C232.376 43.6472 234.42 42.0835 234.71 39.9107C235.12 36.8413 232.142 34.5317 231.426 31.7208C230.942 29.8239 231.459 27.8337 231.542 25.9201C231.684 22.6406 229.95 19.5076 226.81 18.1734C222.139 16.1873 216.187 17.1129 211.486 19.7433Z" fill="#421F09"/>
<path d="M210.492 263.607L210.456 263.841C210.42 264.19 210.378 264.524 210.314 264.886C210.243 265.185 210.186 265.511 210.122 265.845L174.278 265.836C174.278 265.836 174.222 265.467 174.222 264.885C174.236 264.586 174.258 264.238 174.321 263.833C174.336 263.762 174.343 263.677 174.371 263.599C174.762 261.581 176.233 258.796 181.129 257.902C181.364 257.846 181.612 257.817 181.882 257.782H181.903C182.287 257.725 182.671 257.69 183.083 257.655C183.218 257.648 183.352 257.633 183.488 257.627C193.293 256.861 197.635 253.573 197.635 253.573C197.635 253.573 203.318 254.711 208.647 253.576C208.647 253.576 209.272 254.613 209.826 256.417C209.911 256.723 210.004 257.05 210.089 257.398C210.11 257.462 210.124 257.533 210.145 257.611C210.181 257.746 210.209 257.902 210.238 258.059C210.245 258.101 210.259 258.158 210.259 258.201C210.259 258.237 210.281 258.251 210.281 258.279C210.422 259.018 210.529 259.828 210.572 260.701C210.613 261.611 210.606 262.584 210.492 263.607Z" fill="#FFE3D6"/>
<path d="M194.076 253.863C194.198 253.751 194.359 253.668 194.529 253.675C194.709 253.684 194.841 253.751 194.982 253.863C195.08 253.941 195.179 254.018 195.278 254.096C195.751 254.46 196.232 254.814 196.72 255.156C196.859 255.254 196.968 255.37 197.015 255.539C197.057 255.692 197.038 255.896 196.95 256.033C196.775 256.305 196.368 256.468 196.074 256.262C195.392 255.785 194.727 255.285 194.076 254.768C193.956 254.673 193.889 254.461 193.889 254.315C193.889 254.159 193.958 253.97 194.076 253.863Z" fill="white"/>
<path d="M191.539 255.002C191.779 254.783 192.211 254.731 192.444 255.002C192.913 255.548 193.436 256.044 194.003 256.487C194.094 256.555 194.185 256.624 194.278 256.689C194.417 256.787 194.526 256.903 194.573 257.072C194.615 257.226 194.596 257.43 194.509 257.566C194.334 257.837 193.924 258.003 193.632 257.795C192.862 257.251 192.154 256.624 191.539 255.908C191.426 255.777 191.351 255.632 191.351 255.455C191.351 255.299 191.42 255.111 191.539 255.002Z" fill="white"/>
<path d="M189.206 255.83C189.328 255.718 189.488 255.634 189.658 255.643C189.816 255.65 190.01 255.7 190.111 255.83L191.564 257.699C191.673 257.839 191.751 257.966 191.751 258.151C191.751 258.308 191.681 258.496 191.563 258.604C191.441 258.716 191.281 258.799 191.11 258.792C190.953 258.785 190.759 258.734 190.657 258.604L189.205 256.735C189.096 256.595 189.018 256.467 189.018 256.282C189.018 256.126 189.088 255.939 189.206 255.83Z" fill="white"/>
<path d="M186.619 256.433C186.927 256.27 187.318 256.355 187.497 256.668C187.815 257.211 188.129 257.75 188.445 258.293C188.641 258.582 188.553 259.034 188.236 259.202C187.927 259.365 187.536 259.281 187.356 258.968C187.039 258.424 186.725 257.886 186.409 257.342C186.213 257.053 186.301 256.601 186.619 256.433Z" fill="white"/>
<path d="M210.46 263.846C210.419 264.184 210.378 264.529 210.308 264.881C210.246 265.191 210.191 265.516 210.115 265.847L174.28 265.839C174.28 265.839 174.218 265.473 174.218 264.887C174.231 264.583 174.252 264.231 174.321 263.838L210.46 263.846Z" fill="#EF8C86"/>
<path d="M233.112 263.607L233.147 263.841C233.183 264.19 233.225 264.524 233.29 264.886C233.361 265.185 233.418 265.511 233.482 265.845L269.325 265.836C269.325 265.836 269.382 265.467 269.382 264.885C269.367 264.586 269.346 264.238 269.282 263.833C269.268 263.762 269.261 263.677 269.233 263.599C268.841 261.581 267.37 258.796 262.474 257.902C262.24 257.846 261.991 257.817 261.722 257.782H261.7C261.316 257.725 260.933 257.69 260.521 257.655C260.386 257.648 260.251 257.633 260.116 257.627C250.311 256.861 245.969 253.573 245.969 253.573C245.969 253.573 240.286 254.711 234.956 253.576C234.956 253.576 234.331 254.613 233.778 256.417C233.693 256.723 233.6 257.05 233.515 257.398C233.494 257.462 233.48 257.533 233.458 257.611C233.422 257.746 233.395 257.902 233.366 258.059C233.359 258.101 233.344 258.158 233.344 258.201C233.344 258.237 233.323 258.251 233.323 258.279C233.181 259.018 233.075 259.828 233.032 260.701C232.991 261.611 232.998 262.584 233.112 263.607Z" fill="#FFE3D6"/>
<path d="M249.528 253.863C249.405 253.751 249.246 253.668 249.075 253.675C248.894 253.684 248.762 253.751 248.622 253.863C248.523 253.941 248.424 254.018 248.325 254.096C247.853 254.46 247.372 254.814 246.883 255.156C246.744 255.254 246.635 255.37 246.589 255.539C246.547 255.692 246.565 255.896 246.654 256.033C246.83 256.305 247.237 256.468 247.531 256.262C248.212 255.785 248.877 255.285 249.528 254.768C249.648 254.673 249.716 254.461 249.716 254.315C249.715 254.159 249.645 253.97 249.528 253.863Z" fill="white"/>
<path d="M252.066 255.002C251.826 254.783 251.393 254.731 251.159 255.002C250.691 255.548 250.167 256.044 249.601 256.487C249.509 256.555 249.419 256.624 249.325 256.689C249.186 256.787 249.078 256.903 249.031 257.072C248.989 257.226 249.007 257.43 249.095 257.566C249.27 257.837 249.679 258.003 249.972 257.795C250.742 257.251 251.45 256.624 252.065 255.908C252.178 255.777 252.253 255.632 252.252 255.455C252.253 255.299 252.183 255.111 252.066 255.002Z" fill="white"/>
<path d="M254.398 255.83C254.276 255.718 254.115 255.634 253.945 255.643C253.788 255.65 253.593 255.7 253.492 255.83L252.04 257.699C251.931 257.839 251.853 257.966 251.853 258.151C251.853 258.308 251.922 258.496 252.041 258.604C252.162 258.716 252.323 258.799 252.493 258.792C252.651 258.785 252.845 258.734 252.946 258.604L254.399 256.735C254.508 256.595 254.586 256.467 254.586 256.282C254.585 256.126 254.515 255.939 254.398 255.83Z" fill="white"/>
<path d="M256.985 256.433C256.677 256.27 256.285 256.355 256.106 256.668C255.789 257.211 255.474 257.75 255.158 258.293C254.962 258.582 255.05 259.034 255.367 259.202C255.676 259.365 256.067 259.281 256.247 258.968C256.563 258.424 256.878 257.886 257.194 257.342C257.391 257.053 257.302 256.601 256.985 256.433Z" fill="white"/>
<path d="M233.143 263.846C233.185 264.184 233.226 264.529 233.295 264.881C233.357 265.191 233.413 265.516 233.489 265.847L269.324 265.839C269.324 265.839 269.386 265.473 269.386 264.887C269.372 264.583 269.351 264.231 269.282 263.838L233.143 263.846Z" fill="#EF8C86"/>
<path d="M217.909 120.993L208.643 253.573C203.333 255.522 197.635 253.573 197.635 253.573C197.635 253.573 189.312 158.965 192.823 121.253L217.909 120.993Z" fill="#FFC6C6"/>
<path d="M245.972 253.573C245.972 253.573 240.059 254.985 234.956 253.573C225.799 206.047 212.318 120.918 212.318 120.918L236.226 120.736C241.933 156.025 245.972 253.573 245.972 253.573Z" fill="#FFC6C6"/>
<path d="M246.908 185.309C236.225 193.523 188.263 186.05 188.263 186.05C188.263 186.05 188.297 184.723 188.369 182.442C188.371 182.355 188.374 182.265 188.377 182.176C188.393 181.699 188.409 181.184 188.425 180.633C188.43 180.545 188.432 180.458 188.435 180.369C188.91 165.922 190.384 128.367 193.092 120.727L236.225 120.735L245.911 179.277L245.956 179.556L246.188 180.951L246.233 181.233L246.908 185.309Z" fill="#EF8C86"/>
<path d="M246.233 181.234C243.828 182.49 241.167 183.249 238.504 183.742C234.548 184.476 230.492 184.739 226.479 184.947C222.072 185.179 217.658 185.229 213.251 185.1C208.841 184.971 204.437 184.662 200.051 184.174C196.138 183.742 192.24 183.162 188.369 182.442C188.372 182.355 188.375 182.266 188.377 182.176C188.498 182.199 188.617 182.223 188.739 182.244C193.048 183.036 197.386 183.652 201.742 184.09C206.07 184.525 210.416 184.789 214.767 184.873C219.116 184.96 223.47 184.873 227.811 184.61C231.73 184.373 235.69 184.093 239.535 183.267C241.837 182.774 244.111 182.049 246.189 180.952L246.233 181.234Z" fill="#FFE3D6"/>
<path d="M245.956 179.557C243.622 180.731 241.065 181.451 238.504 181.925C234.548 182.659 230.492 182.92 226.479 183.13C222.072 183.363 217.658 183.412 213.251 183.283C208.841 183.154 204.437 182.846 200.052 182.358C196.157 181.923 192.277 181.347 188.425 180.633C188.43 180.546 188.432 180.458 188.435 180.369C188.535 180.39 188.638 180.408 188.738 180.427C193.047 181.218 197.385 181.835 201.742 182.272C206.069 182.707 210.416 182.969 214.767 183.056C219.115 183.143 223.469 183.056 227.81 182.792C231.729 182.552 235.69 182.275 239.535 181.449C241.734 180.974 243.91 180.291 245.911 179.276L245.956 179.557Z" fill="#FFE3D6"/>
<path d="M245.434 58.1171C245.646 56.8748 240.872 51.5096 241.919 50.3966C242.876 49.3783 245.413 51.1322 245.857 52.6565C246.329 50.7146 245.909 42.6513 247.586 42.7909C248.827 42.8939 248.461 48.9891 248.461 48.9891C248.461 48.9891 249.657 41.9669 251.234 42.383C252.81 42.7999 250.726 49.7848 250.726 49.7848C250.726 49.7848 252.844 43.9647 254.043 44.5074C255.222 45.0411 252.532 50.8957 252.532 50.8957C252.532 50.8957 255.336 46.6055 255.984 46.956C256.632 47.3065 255.531 50.3185 254.029 52.3475C254.267 56.7124 251.609 59.573 251.609 59.573L245.434 58.1171Z" fill="#EBBDA4"/>
<path d="M227.267 58.612C233.038 60.8815 236.876 82.764 236.876 82.764L244.215 57.1782C244.215 57.1782 250.746 57.3898 253.17 59.0344C253.17 59.0344 247.926 84.0478 247.043 87.5237C244.349 98.1158 232.676 97.8538 228.672 91.5844C221.561 80.4489 227.267 58.612 227.267 58.612Z" fill="white"/>
<path d="M192.823 121.253C220.059 127.343 236.226 120.733 236.226 120.733C235.193 117.555 229.12 88.3954 229.12 88.3954C235.224 86.318 235.909 75.6878 229.141 69.2746L227.268 58.6119L220.289 56.1156L211.145 56.0527L201.897 59.0343L200.952 104.018L192.823 121.253Z" fill="#EF8C86"/>
<path d="M209.59 56.5542L214.524 96.3103L212.318 141.679H186.355L198.219 103.339L201.897 59.0346L209.59 56.5542Z" fill="white"/>
<path d="M209.59 56.5542L204.193 64.8934L208.709 68.6188L206.091 74.2412L213.994 92.0409L209.59 56.5542Z" fill="#BEFCF3"/>
<path d="M221.514 56.5542L224.435 95.8181L229.538 141.678H241.486L229.706 88.5788C235.75 84.8534 236.384 77.2629 229.706 68.9693L227.268 58.6115L221.514 56.5542Z" fill="white"/>
<path d="M232.557 73.2574C231.758 71.7773 230.775 70.4058 229.715 69.1027C229.456 66.5981 229.197 64.0935 228.938 61.5889C228.92 61.4216 228.656 61.4202 228.673 61.5889C228.935 64.1197 229.197 66.6513 229.459 69.1821C229.464 69.2305 229.491 69.2637 229.525 69.2838C231.367 71.5478 232.992 74.069 233.759 76.9116C234.495 79.636 234.404 82.6259 232.999 85.125C232.303 86.3638 231.314 87.4332 230.087 88.1584C229.941 88.2448 230.073 88.473 230.221 88.3859C232.491 87.044 233.94 84.5906 234.348 82.0183C234.827 78.9911 233.994 75.9182 232.557 73.2574Z" fill="#BEFCF3"/>
<path d="M224.005 68.7419L227.166 64.4793L221.514 56.5542L224.17 92.2517L227.703 73.9598L224.005 68.7419Z" fill="#BEFCF3"/>
<path d="M207.286 104.494L232.355 105.545L233.822 70.5709L208.753 69.5196L207.286 104.494Z" fill="#26645F"/>
<path d="M217.846 68.9566C218.348 68.1291 219.746 67.5685 221.387 67.6376C223.028 67.7067 224.375 68.3828 224.806 69.249L226.961 69.3396L226.848 72.0446L215.578 71.5718L215.691 68.8667L217.846 68.9566Z" fill="#154340"/>
<path d="M229.939 78.0063C232.197 77.3592 233.627 75.21 233.627 75.21C235.984 75.9683 238.281 86.8812 233.09 88.0108C230.896 88.4567 229.337 87.8767 228.368 88.297L225.729 81.1434C226.052 79.4359 227.617 77.4664 229.939 78.0063Z" fill="#EBA37D"/>
<path d="M201.897 59.0342C197.587 60.5447 192.275 86.4395 191.351 91.3892C190.306 96.9888 193.673 102.061 198.566 102.106C203.459 102.151 229.12 88.3945 229.12 88.3945C229.12 88.3945 228.044 83.4593 225.395 80.4514L203.368 88.2964L206.152 76.6735L201.897 59.0342Z" fill="white"/>
<path d="M212.862 84.9376C209.77 86.184 206.615 87.2742 203.412 88.2019C204.15 85.3261 204.887 82.4503 205.625 79.5745C205.835 78.7546 206.045 77.9354 206.255 77.1155C206.298 76.951 206.043 76.8812 206.001 77.045C205.256 79.9506 204.511 82.8568 203.765 85.7623C203.555 86.5822 203.345 87.4014 203.135 88.2213C203.129 88.2434 203.129 88.2635 203.133 88.2821C202.261 88.5317 201.385 88.7709 200.506 88.9963C200.342 89.0384 200.412 89.2928 200.576 89.2506C203.856 88.4073 207.092 87.3973 210.268 86.2221C211.161 85.8916 212.049 85.548 212.932 85.192C213.088 85.1291 213.02 84.874 212.862 84.9376Z" fill="#BEFCF3"/>
<path d="M213.112 96.2265C211.163 97.1141 209.213 98.0025 207.263 98.8901C205.404 99.7369 203.556 100.664 201.614 101.31C200.558 101.662 199.468 101.915 198.354 101.979C198.186 101.989 198.184 102.253 198.354 102.242C200.363 102.126 202.262 101.42 204.089 100.618C206.038 99.7618 207.966 98.859 209.903 97.9769C211.016 97.4695 212.131 96.9621 213.245 96.4546C213.399 96.3848 213.266 96.1567 213.112 96.2265Z" fill="#BEFCF3"/>
<path d="M230.232 39.4438C230.228 39.5074 230.219 39.5703 230.216 39.6339C230.207 39.7092 230.203 39.7721 230.195 39.8475C229.813 43.4132 228.533 45.6717 226.748 47.3571C225.793 48.2655 224.903 48.9354 224.121 49.5326C223.869 49.7255 223.634 49.9066 223.405 50.0871C223.226 50.226 223.059 50.3698 222.887 50.5198C221.141 52.0027 220.16 53.63 220.41 58.2873C219.04 62.348 213.002 63.2274 210.803 58.8072C210.564 53.1668 209.235 48.3588 208.123 45.2728C207.841 44.4668 207.569 43.7817 207.336 43.2321C206.896 42.1793 206.588 41.6041 206.588 41.6041C206.588 41.6041 206.185 29.1993 207.792 25.814C211.709 17.6442 227.099 19.5356 228.624 25.7961C230.087 31.7772 230.521 36.1518 230.232 39.4438Z" fill="#EBA37D"/>
<path d="M230.464 32.8333C228.873 29.6602 226.481 26.8923 223.573 24.8571C220.939 28.306 217.233 30.8804 213.03 31.963C212.545 35.3517 210.257 38.4847 207.07 39.7353C205.97 39.6675 205.007 38.6762 204.602 37.6524C204.196 36.6286 204.191 35.4969 204.195 34.3957C204.201 32.5713 204.218 30.7255 204.67 28.9579C205.439 25.9528 207.473 23.3341 210.078 21.6501C212.684 19.9668 215.826 19.1911 218.927 19.2368C221.108 19.2686 223.306 19.7041 225.242 20.7092C227.178 21.7144 228.837 23.3161 229.715 25.3126C230.765 27.699 230.604 30.2306 230.464 32.8333Z" fill="#421F09"/>
<path d="M203.265 42.0673C204.656 43.5557 206.741 43.8675 207.923 42.7635C209.104 41.6594 208.935 39.5579 207.544 38.0688C206.153 36.5797 204.067 36.268 202.886 37.372C201.704 38.4767 201.874 40.5782 203.265 42.0673Z" fill="#EBA37D"/>
<path d="M203.78 38.0895C204.32 37.766 205.062 37.7397 205.764 38.0217C206.114 38.1614 206.371 38.3411 206.553 38.5706C206.794 38.8741 206.877 39.2668 206.77 39.5951C206.676 39.8896 206.455 40.0901 206.261 40.2664C206.12 40.3943 205.987 40.5146 205.915 40.6542C205.806 40.8685 205.852 41.1575 206.023 41.3269C206.194 41.4955 206.483 41.5377 206.696 41.425C206.821 41.3587 206.976 41.407 207.042 41.5315C207.108 41.6559 207.061 41.8115 206.935 41.8771C206.799 41.9497 206.648 41.9884 206.496 41.9967C206.192 42.0126 205.882 41.9062 205.663 41.6898C205.334 41.3649 205.249 40.8312 205.46 40.4199C205.574 40.198 205.756 40.0327 205.917 39.8869C206.078 39.741 206.23 39.6027 206.284 39.4368C206.338 39.2709 206.286 39.0559 206.152 38.8872C206.098 38.8195 206.026 38.7594 205.948 38.702C205.695 38.7137 205.381 38.8084 205.23 38.9923C205.06 39.1997 204.99 39.4908 205.048 39.7528C205.078 39.891 204.991 40.0272 204.853 40.0576C204.839 40.0611 204.825 40.0625 204.811 40.0632C204.689 40.0701 204.575 39.9864 204.548 39.8627C204.456 39.4458 204.563 38.9992 204.835 38.6681C204.936 38.5451 205.066 38.4586 205.203 38.3867C204.774 38.2955 204.359 38.3404 204.044 38.5285C203.656 38.7607 203.384 39.3221 203.613 39.7555C203.679 39.8806 203.631 40.0355 203.507 40.1012C203.381 40.1668 203.227 40.1198 203.161 39.9947C202.826 39.3636 203.111 38.4918 203.78 38.0895Z" fill="#C16B5B"/>
<path d="M223.203 38.4677C223.423 38.3557 223.656 38.2879 223.902 38.2734C224.122 38.2603 224.365 38.2886 224.547 38.4214C224.744 38.5638 224.842 38.7843 224.861 39.0214C224.88 39.2482 224.806 39.4721 224.721 39.6795C224.677 39.7908 224.569 39.8842 224.44 39.8441C224.334 39.8109 224.227 39.6823 224.276 39.5627C224.337 39.4113 224.405 39.2468 224.403 39.0809C224.402 38.9958 224.379 38.9087 224.329 38.8403C224.332 38.8444 224.334 38.8493 224.337 38.8534C224.29 38.7801 224.2 38.7532 224.12 38.7394C224.114 38.738 224.108 38.7373 224.099 38.7359C224.081 38.7352 224.064 38.7331 224.047 38.7324C224.001 38.7304 223.955 38.7311 223.908 38.7338C223.885 38.7352 223.861 38.738 223.839 38.74C223.826 38.7414 223.825 38.7407 223.821 38.7414C223.818 38.7421 223.817 38.7428 223.807 38.7442C223.664 38.7705 223.541 38.8285 223.406 38.8769C223.304 38.9136 223.178 38.8831 223.125 38.7836C223.068 38.6806 223.088 38.5264 223.203 38.4677Z" fill="#C16B5B"/>
<path d="M228.293 32.6792C227.084 32.0252 225.616 31.963 224.382 32.6018C224.08 32.758 223.913 33.159 224.083 33.4721C224.305 33.8793 224.703 33.8786 225.076 33.7099C225.409 33.5592 225.768 33.4666 226.132 33.4376C226.13 33.4175 226.1 33.4521 226.12 33.4514C226.587 33.4258 227.048 33.5205 227.473 33.712C227.498 33.7231 227.523 33.7355 227.563 33.7542C227.861 33.9118 228.262 33.9014 228.461 33.5848C228.631 33.3124 228.613 32.852 228.293 32.6792Z" fill="black"/>
<path d="M220.448 32.7347C219.166 32.2349 217.702 32.3552 216.556 33.1419C216.276 33.3348 216.16 33.753 216.368 34.0427C216.57 34.3233 216.969 34.4374 217.269 34.2314C217.385 34.1526 217.504 34.0835 217.626 34.015C217.638 34.0088 217.636 34.0102 217.643 34.006C217.665 33.9964 217.687 33.986 217.71 33.9763C217.757 33.9556 217.806 33.9362 217.855 33.9182C217.985 33.8692 218.118 33.8284 218.253 33.7952C218.287 33.7869 218.504 33.7219 218.337 33.7744C218.393 33.7572 218.46 33.7558 218.518 33.7489C218.647 33.7337 218.778 33.7261 218.908 33.7254C218.978 33.7247 219.047 33.7288 219.117 33.7302C219.125 33.7302 219.127 33.7302 219.132 33.7302C219.143 33.7316 219.156 33.7337 219.176 33.7357C219.306 33.7516 219.434 33.7744 219.561 33.8049C219.629 33.8215 219.696 33.8394 219.762 33.8602C219.788 33.8685 219.815 33.8768 219.841 33.8857C219.846 33.8878 219.844 33.8864 219.849 33.8892C219.851 33.8899 219.853 33.8899 219.855 33.8906C219.857 33.8913 219.859 33.892 219.861 33.8927C219.858 33.892 219.859 33.892 219.857 33.8913C220.172 34.0109 220.569 33.9507 220.726 33.612C220.861 33.321 220.787 32.8661 220.448 32.7347Z" fill="black"/>
<path d="M220.865 41.6218C221.693 42.2522 222.744 42.5426 223.778 42.4472C224.065 42.4209 224.089 42.8661 223.803 42.8924C222.647 42.9988 221.488 42.6553 220.567 41.9543C220.338 41.7801 220.637 41.4489 220.865 41.6218Z" fill="#8E4136"/>
<path d="M217.91 37.1479C217.891 37.7286 218.346 38.2152 218.927 38.2346C219.508 38.254 219.994 37.7984 220.014 37.2177C220.033 36.637 219.578 36.1503 218.997 36.131C218.416 36.1116 217.929 36.5665 217.91 37.1479Z" fill="black"/>
<path d="M219.035 36.8485C219.029 37.0179 219.162 37.1596 219.331 37.1651C219.501 37.1706 219.642 37.0379 219.648 36.8685C219.654 36.6992 219.521 36.5575 219.351 36.5519C219.183 36.5464 219.041 36.6791 219.035 36.8485Z" fill="white"/>
<path d="M225.588 36.9355C225.569 37.5162 226.024 38.0028 226.605 38.0222C227.186 38.0416 227.673 37.586 227.692 37.0053C227.711 36.4246 227.256 35.9379 226.675 35.9186C226.094 35.8992 225.608 36.3548 225.588 36.9355Z" fill="black"/>
<path d="M226.713 36.6361C226.708 36.8055 226.84 36.9472 227.01 36.9527C227.179 36.9582 227.321 36.8255 227.326 36.6561C227.332 36.4868 227.199 36.3451 227.03 36.3395C226.86 36.334 226.719 36.4667 226.713 36.6361Z" fill="white"/>
</g>
<defs>
<filter id="filter0_dddd_464_10011" x="0" y="0" width="350" height="348.847" filterUnits="userSpaceOnUse" color-interpolation-filters="sRGB">
<feFlood flood-opacity="0" result="BackgroundImageFix"/>
<feColorMatrix in="SourceAlpha" type="matrix" values="0 0 0 0 0 0 0 0 0 0 0 0 0 0 0 0 0 0 127 0" result="hardAlpha"/>
<feOffset dx="-1" dy="4"/>
<feGaussianBlur stdDeviation="4"/>
<feColorMatrix type="matrix" values="0 0 0 0 0 0 0 0 0 0 0 0 0 0 0 0 0 0 0.1 0"/>
<feBlend mode="normal" in2="BackgroundImageFix" result="effect1_dropShadow_464_10011"/>
<feColorMatrix in="SourceAlpha" type="matrix" values="0 0 0 0 0 0 0 0 0 0 0 0 0 0 0 0 0 0 127 0" result="hardAlpha"/>
<feOffset dx="-3" dy="15"/>
<feGaussianBlur stdDeviation="7.5"/>
<feColorMatrix type="matrix" values="0 0 0 0 0 0 0 0 0 0 0 0 0 0 0 0 0 0 0.09 0"/>
<feBlend mode="normal" in2="effect1_dropShadow_464_10011" result="effect2_dropShadow_464_10011"/>
<feColorMatrix in="SourceAlpha" type="matrix" values="0 0 0 0 0 0 0 0 0 0 0 0 0 0 0 0 0 0 127 0" result="hardAlpha"/>
<feOffset dx="-7" dy="33"/>
<feGaussianBlur stdDeviation="10"/>
<feColorMatrix type="matrix" values="0 0 0 0 0 0 0 0 0 0 0 0 0 0 0 0 0 0 0.05 0"/>
<feBlend mode="normal" in2="effect2_dropShadow_464_10011" result="effect3_dropShadow_464_10011"/>
<feColorMatrix in="SourceAlpha" type="matrix" values="0 0 0 0 0 0 0 0 0 0 0 0 0 0 0 0 0 0 127 0" result="hardAlpha"/>
<feOffset dx="-13" dy="59"/>
<feGaussianBlur stdDeviation="12"/>
<feColorMatrix type="matrix" values="0 0 0 0 0 0 0 0 0 0 0 0 0 0 0 0 0 0 0.01 0"/>
<feBlend mode="normal" in2="effect3_dropShadow_464_10011" result="effect4_dropShadow_464_10011"/>
<feBlend mode="normal" in="SourceGraphic" in2="effect4_dropShadow_464_10011" result="shape"/>
</filter>
</defs>
</svg>
