<svg width="14" height="21" viewBox="0 0 14 21" fill="none" xmlns="http://www.w3.org/2000/svg">
<path d="M1 19.5V17.5C1 16.4391 1.42143 15.4217 2.17157 14.6716C2.92172 13.9214 3.93913 13.5 5 13.5H9C10.0609 13.5 11.0783 13.9214 11.8284 14.6716C12.5786 15.4217 13 16.4391 13 17.5V19.5M3 5.5C3 6.56087 3.42143 7.57828 4.17157 8.32843C4.92172 9.07857 5.93913 9.5 7 9.5C8.06087 9.5 9.07828 9.07857 9.82843 8.32843C10.5786 7.57828 11 6.56087 11 5.5C11 4.43913 10.5786 3.42172 9.82843 2.67157C9.07828 1.92143 8.06087 1.5 7 1.5C5.93913 1.5 4.92172 1.92143 4.17157 2.67157C3.42143 3.42172 3 4.43913 3 5.5Z" stroke="#C1C1C1" stroke-width="2" stroke-linecap="round" stroke-linejoin="round"/>
</svg>
